<svg width="142" height="143" viewBox="0 0 142 143" fill="none" xmlns="http://www.w3.org/2000/svg">
<g clip-path="url(#clip0)">
<path d="M58.5195 0.203811C57.0904 0.201315 55.7508 0.457303 54.3594 0.56935C31.357 2.42367 13.7152 19.4071 9.61745 39.9122C8.04103 47.806 8.27677 55.6104 10.3164 63.1425L0 80.4089L16.918 92.4628V116.688H33.5586V142.204H54.3594H91.8008V124.671C91.8008 107.628 95.9568 89.5781 104.505 69.4923C107.117 63.3536 108.441 56.8371 108.441 50.1257C108.441 22.7485 86.3646 0.256229 58.5195 0.203811Z" fill="#1588EA"/>
<path d="M91.8008 124.671C91.8008 107.629 95.9568 89.5782 104.505 69.4924C107.117 63.3536 108.441 56.8372 108.441 50.1257C108.441 22.7486 86.3646 0.256274 58.5195 0.203856C57.0904 0.20136 55.7508 0.457349 54.3594 0.569396V142.204H91.8008V124.671Z" fill="#006DC9"/>
<path d="M71 50.1257H121.199V58.446H71V50.1257Z" fill="#CCE6FF"/>
<path d="M129.52 66.7664C122.638 66.7664 117.039 61.1679 117.039 54.2859C117.039 47.4039 122.638 41.8054 129.52 41.8054C136.402 41.8054 142 47.4039 142 54.2859C142 61.1679 136.402 66.7664 129.52 66.7664Z" fill="#B28400"/>
<path d="M120.696 84.6259L111.156 75.0867H54.3594V66.7664H114.601L126.578 78.7432L120.696 84.6259Z" fill="#CCE6FF"/>
<path d="M129.52 100.048C122.638 100.048 117.039 94.4491 117.039 87.5671C117.039 80.6851 122.638 75.0867 129.52 75.0867C136.402 75.0867 142 80.6851 142 87.5671C142 94.4491 136.402 100.048 129.52 100.048Z" fill="#B28400"/>
<path d="M114.601 41.8054H54.3594V33.4851H111.156L120.696 23.9461L126.578 29.8286L114.601 41.8054Z" fill="#CCE6FF"/>
<path d="M129.52 33.4851C122.638 33.4851 117.039 27.8866 117.039 21.0046C117.039 14.1226 122.638 8.52417 129.52 8.52417C136.402 8.52417 142 14.1226 142 21.0046C142 27.8866 136.402 33.4851 129.52 33.4851Z" fill="#B28400"/>
<path d="M54.3594 75.0867C65.8473 75.0867 75.1602 65.7738 75.1602 54.2859C75.1602 42.7979 65.8473 33.4851 54.3594 33.4851C42.8714 33.4851 33.5586 42.7979 33.5586 54.2859C33.5586 65.7738 42.8714 75.0867 54.3594 75.0867Z" fill="#E6F7FF"/>
<path d="M75.1602 54.2859C75.1602 42.8169 65.8284 33.4851 54.3594 33.4851V75.0867C65.8284 75.0867 75.1602 65.7549 75.1602 54.2859Z" fill="#CCE6FF"/>
<path d="M54.3594 66.7664C61.2521 66.7664 66.8398 61.1787 66.8398 54.2859C66.8398 47.3931 61.2521 41.8054 54.3594 41.8054C47.4666 41.8054 41.8789 47.3931 41.8789 54.2859C41.8789 61.1787 47.4666 66.7664 54.3594 66.7664Z" fill="#E9B319"/>
<path d="M66.8398 54.2859C66.8398 47.4042 61.2411 41.8054 54.3594 41.8054V66.7664C61.2414 66.7664 66.8398 61.1676 66.8398 54.2859Z" fill="#B28400"/>
<path d="M54.3594 50.1257H50.1992V58.446H54.3594H58.5195V50.1257H54.3594Z" fill="#E6F7FF"/>
<path d="M54.3594 50.1257H58.5195V58.446H54.3594V50.1257Z" fill="#CCE6FF"/>
</g>
<defs>
<clipPath id="clip0">
<rect width="142" height="142" fill="white" transform="translate(0 0.203857)"/>
</clipPath>
</defs>
</svg>
