<svg width="154" height="152" viewBox="0 0 154 152" fill="none" xmlns="http://www.w3.org/2000/svg">
<path d="M144.375 37.9976H9.625C4.32163 37.9976 0 42.2631 0 47.4976V132.998C0 138.242 4.32163 142.498 9.625 142.498H144.375C149.688 142.498 154 138.242 154 132.998V47.4976C154 42.2631 149.688 37.9976 144.375 37.9976Z" fill="#006DC9"/>
<path d="M154 56.9976H0V85.4976H154V56.9976Z" fill="#642769"/>
<path d="M43.3125 113.998H24.0625C21.406 113.998 19.25 111.87 19.25 109.248C19.25 106.626 21.406 104.498 24.0625 104.498H43.3125C45.969 104.498 48.125 106.626 48.125 109.248C48.125 111.87 45.969 113.998 43.3125 113.998Z" fill="#FAFAFA"/>
<path d="M154 84.9846V47.4976C154 42.2631 149.688 37.9976 144.375 37.9976H67.375V47.4976C67.375 77.2516 78.848 95.3681 108.339 112.126C110.514 113.352 112.998 113.998 115.5 113.998C118.002 113.998 120.486 113.352 122.69 112.107C137.281 103.833 147.445 95.1971 154 84.9846Z" fill="#FAFAFA"/>
<path d="M151.084 24.1371L117.396 9.88713C116.174 9.37413 114.817 9.37413 113.594 9.88713L79.9068 24.1371C78.1454 24.8781 77 26.5976 77 28.4976V47.4976C77 73.6321 86.7886 88.9081 113.103 103.871C113.845 104.289 114.672 104.498 115.5 104.498C116.328 104.498 117.155 104.289 117.897 103.871C144.211 88.9461 154 73.6701 154 47.4976V28.4976C154 26.5976 152.855 24.8781 151.084 24.1371Z" fill="#E9B319"/>
<path d="M110.687 71.2476C110.62 71.2476 110.543 71.2476 110.485 71.2476C108.955 71.1811 107.54 70.4021 106.683 69.1386L97.0584 54.8886C95.5857 52.7036 96.1825 49.7586 98.3962 48.3051C100.591 46.8611 103.584 47.4311 105.066 49.6256L111.043 58.4701L126.174 39.7931C127.839 37.7506 130.871 37.4276 132.94 39.0521C135.019 40.6956 135.347 43.6786 133.691 45.7306L114.441 69.4806C113.527 70.5921 112.141 71.2476 110.687 71.2476Z" fill="#FAFAFA"/>
<g style="mix-blend-mode:soft-light" opacity="0.6">
<path d="M0 29.402C0 24.4314 4.02944 20.402 9 20.402H77V142.498H9C4.02944 142.498 0 138.468 0 133.498V29.402Z" fill="white"/>
</g>
</svg>
