<svg width="142" height="143" viewBox="0 0 142 143" fill="none" xmlns="http://www.w3.org/2000/svg">
<g clip-path="url(#clip0)">
<path d="M70.5063 0.710693C31.5411 0.710693 0.00634766 32.4657 0.00634766 71.7107C0.00634766 110.952 31.5377 142.711 70.5063 142.711C109.361 142.711 141.006 111.003 141.006 71.7107C141.006 32.469 109.475 0.710693 70.5063 0.710693Z" fill="#1588EA"/>
<path d="M70.5063 0.710693V142.711C109.361 142.711 141.006 111.003 141.006 71.7107C141.006 32.469 109.475 0.710693 70.5063 0.710693Z" fill="#006DC9"/>
<path d="M52.626 81.4607C53.8083 79.4957 53.1853 76.9372 51.2342 75.7466C49.2833 74.556 46.7429 75.1833 45.5606 77.1483C41.2441 84.3215 34.3748 91.6542 26.8181 94.4837C24.6797 95.2843 23.5905 97.6789 24.3855 99.8325C25.1806 101.987 27.5589 103.083 29.697 102.282C39.1118 98.7578 47.3264 90.2678 52.626 81.4607Z" fill="#E1E4F9"/>
<path d="M50.9467 65.0764C50.2684 67.2702 51.4843 69.6021 53.6626 70.2852C55.8409 70.9683 58.1564 69.7438 58.835 67.5503C63.4503 52.6239 87.0972 57.7545 82.2743 75.7474C78.9487 88.155 68.5061 104.486 55.6705 117.353C54.0534 118.974 54.0473 121.608 55.657 123.237C57.2664 124.865 59.8815 124.871 61.4988 123.25C75.2885 109.427 86.5743 91.6323 90.2507 77.916C92.7298 68.666 89.8789 62.2913 87.0507 58.5724C77.0733 45.4515 56.0009 48.7311 50.9467 65.0764Z" fill="#E1E4F9"/>
<path d="M113.287 38.3363C91.7051 9.95624 48.558 10.0494 27.3045 39.32C22.3593 46.131 19.9345 54.41 17.947 58.5594C16.9559 60.6289 17.8184 63.1156 19.8731 64.1137C21.9283 65.1116 24.3972 64.2432 25.3883 62.174C29.0309 54.5678 30.7934 43.9256 43.8334 34.3242C75.3778 11.0972 121.554 36.1744 115.274 78.7727C114.939 81.0453 116.497 83.1614 118.753 83.4987C121.004 83.8365 123.11 82.2723 123.446 79.9947C125.854 63.6655 121.838 49.5804 113.287 38.3363Z" fill="#E1E4F9"/>
<path d="M89.0476 108.799C87.1378 107.541 84.578 108.081 83.33 110.005C81.5424 112.759 79.6827 115.509 77.6448 118.412C75.7033 121.177 77.6952 124.974 81.0142 124.974C82.3099 124.974 83.5858 124.362 84.3908 123.215C86.487 120.229 88.4021 117.397 90.2456 114.557C91.4934 112.634 90.9572 110.055 89.0476 108.799Z" fill="#E1E4F9"/>
<path d="M90.8552 39.8128C88.9379 38.5673 86.3812 39.1231 85.1449 41.0542C83.9084 42.9851 84.4603 45.5597 86.3776 46.805C94.9877 52.3976 99.8621 61.9984 99.4165 72.4878C99.3163 74.8455 101.184 76.826 103.547 76.826C105.747 76.826 107.576 75.0785 107.671 72.8439C108.243 59.3714 101.957 47.0235 90.8552 39.8128Z" fill="#E1E4F9"/>
<path d="M62.6897 43.2658C66.5892 42.1406 70.6892 41.8549 74.7107 42.4266C76.9678 42.7463 79.0597 41.1641 79.3786 38.889C79.6975 36.614 78.125 34.5092 75.866 34.1881C70.8886 33.48 65.6088 33.769 60.4147 35.2675C58.2215 35.9001 56.953 38.2037 57.5812 40.4125C58.2093 42.6221 60.4976 43.8987 62.6897 43.2658Z" fill="#E1E4F9"/>
<path d="M43.0603 62.5977C44.6738 57.3565 47.7066 52.7057 51.8312 49.1491C53.5642 47.6547 53.7661 45.0286 52.2823 43.2835C50.7985 41.5385 48.1905 41.3352 46.458 42.8292C41.1482 47.4079 37.2446 53.3919 35.1692 60.1344C31.9816 70.4896 27.2302 76.643 20.6435 78.9463C18.4882 79.6999 17.3479 82.0706 18.0961 84.2408C18.8449 86.413 21.1995 87.5595 23.3533 86.8063C32.4663 83.6193 39.0966 75.4743 43.0603 62.5977Z" fill="#E1E4F9"/>
<path d="M74.608 72.5045C75.2868 70.3109 74.0713 67.9785 71.8932 67.2951C69.7151 66.6103 67.3991 67.8356 66.7205 70.0289C59.293 94.0338 42.7236 104.909 37.8222 107.671C35.8311 108.792 35.12 111.327 36.2337 113.332C37.3463 115.335 39.862 116.055 41.8555 114.932C55.6702 107.149 68.5216 92.1745 74.608 72.5045Z" fill="#E1E4F9"/>
<path d="M82.2741 75.7474C80.3766 82.8266 76.1598 91.183 70.5063 99.4445V113.234C80.0517 101.497 87.4151 88.4942 90.2505 77.9157C94.5744 61.7832 83.008 50.3799 70.5063 50.4637V58.784C77.713 58.6972 85.1434 65.0428 82.2741 75.7474Z" fill="#D6DAF6"/>
<path d="M70.5063 17.1808V25.5011C96.3735 25.4317 119.85 47.7318 115.274 78.7727C114.939 81.0453 116.497 83.1614 118.753 83.4986C121.004 83.8364 123.11 82.2722 123.446 79.9947C128.734 44.1278 101.629 17.0973 70.5063 17.1808Z" fill="#D6DAF6"/>
<path d="M89.0474 108.799C87.1375 107.541 84.5778 108.081 83.3297 110.005C81.5422 112.759 79.6824 115.509 77.6446 118.412C75.7031 121.177 77.695 124.974 81.014 124.974C82.3097 124.974 83.5856 124.362 84.3905 123.215C86.4868 120.229 88.4019 117.397 90.2453 114.557C91.4931 112.634 90.9569 110.055 89.0474 108.799Z" fill="#D6DAF6"/>
<path d="M90.8552 39.8128C88.9379 38.5673 86.3812 39.1231 85.1449 41.0542C83.9084 42.9851 84.4603 45.5597 86.3776 46.805C94.9877 52.3976 99.8621 61.9984 99.4165 72.4878C99.3163 74.8455 101.184 76.826 103.547 76.826C105.747 76.826 107.576 75.0785 107.671 72.8439C108.243 59.3714 101.957 47.0235 90.8552 39.8128Z" fill="#D6DAF6"/>
<path d="M74.7107 42.4265C76.9678 42.7463 79.0597 41.1641 79.3786 38.889C79.6975 36.614 78.125 34.5092 75.866 34.188C74.1148 33.939 72.3561 33.8153 70.5066 33.8225V42.1428C71.9634 42.135 73.3393 42.2316 74.7107 42.4265Z" fill="#D6DAF6"/>
<path d="M70.5063 67.1129V83.1007C72.0984 79.7176 73.4693 76.184 74.608 72.5045C75.4504 69.7818 73.3759 67.0025 70.5063 67.1129Z" fill="#D6DAF6"/>
<path d="M99.4353 102.219V84.4555C99.4353 79.8749 103.136 76.1482 107.684 76.1482C112.232 76.1482 115.933 79.8749 115.933 84.4555V88.49C115.933 90.7875 117.782 92.6501 120.064 92.6501C122.345 92.6501 124.195 90.7875 124.195 88.49V84.4555C124.195 75.287 116.788 67.8279 107.684 67.8279C98.5802 67.8279 91.1736 75.287 91.1736 84.4555V102.219H99.4353Z" fill="#3C3A41"/>
<path d="M107.684 67.8279V76.1482C112.232 76.1482 115.933 79.8749 115.933 84.4555V88.49C115.933 90.7875 117.782 92.6501 120.064 92.6501C122.345 92.6501 124.195 90.7875 124.195 88.49V84.4555C124.195 75.287 116.788 67.8279 107.684 67.8279Z" fill="#2B292C"/>
<path d="M128.338 142.433H87.0298C84.7484 142.433 82.8989 140.571 82.8989 138.273V104.992C82.8989 102.694 84.7484 100.832 87.0298 100.832H128.338C130.62 100.832 132.469 102.694 132.469 104.992V138.273C132.469 140.571 130.62 142.433 128.338 142.433Z" fill="#E9B319"/>
<path d="M128.338 100.832H107.684V142.433H128.338C130.62 142.433 132.469 140.571 132.469 138.273V104.992C132.469 102.694 130.62 100.832 128.338 100.832Z" fill="#B28400"/>
<path d="M111.815 125.793H103.553C101.272 125.793 99.4224 123.93 99.4224 121.633C99.4224 119.335 101.272 117.472 103.553 117.472H111.815C114.096 117.472 115.946 119.335 115.946 121.633C115.946 123.93 114.096 125.793 111.815 125.793Z" fill="#A63BAF"/>
<path d="M111.815 117.472H107.684V125.793H111.815C114.096 125.793 115.946 123.93 115.946 121.633C115.946 119.335 114.096 117.472 111.815 117.472Z" fill="#642769"/>
</g>
<defs>
<clipPath id="clip0">
<rect width="141" height="142" fill="white" transform="translate(0.00634766 0.710693)"/>
</clipPath>
</defs>
</svg>
