<svg width="595" height="431" viewBox="0 0 595 431" fill="none" xmlns="http://www.w3.org/2000/svg">
<path d="M100.345 322.288C95.2983 323.109 88.1392 322.64 82.0363 322.522C69.4785 322.171 56.5686 320.411 44.3628 317.362C35.5606 315.134 25.7021 311.029 19.1298 304.461C15.961 301.295 12.088 295.782 13.2617 291.091C16.1957 279.598 40.0204 285.462 47.0622 288.042C66.3097 295.079 85.7919 307.745 100.345 322.288Z" fill="#642769"/>
<path d="M24.9982 284.289H24.5287C24.5287 284.406 23.7072 291.795 26.4065 297.307C18.5432 293.554 13.614 290.974 13.3793 290.857L13.1445 291.209C13.2619 291.326 18.1911 293.906 26.0545 297.542C19.4821 298.128 16.0786 300.474 15.9612 300.591L16.196 300.943C16.196 300.943 19.8342 298.363 26.876 298.011C32.3921 300.591 39.3165 303.64 47.0624 306.807C34.974 306.807 26.876 310.208 26.7586 310.208L26.876 310.677C26.9934 310.677 35.4435 307.159 48.0013 307.276C53.8695 309.622 60.2071 311.967 66.7794 314.196C53.9868 315.017 47.884 318.066 47.7666 318.183L48.0013 318.535C48.1187 318.535 54.4563 315.368 67.8356 314.547C72.9996 316.189 78.1636 317.714 83.4449 319.121C73.3517 319.942 68.8919 321.584 68.8919 321.584L69.0093 322.053C69.0093 322.053 73.7038 320.294 84.7359 319.591C89.7825 320.881 94.9465 321.936 99.8757 322.64L99.9931 322.171C95.0638 321.35 89.8999 320.294 84.8533 319.121C78.8678 314.547 76.99 303.64 76.99 303.523L76.5205 303.64C76.5205 303.758 78.2809 313.844 83.797 318.887C78.3983 317.48 72.9996 315.955 67.8356 314.196C60.5591 306.455 61.3807 294.727 61.3807 294.61H60.9112C60.9112 294.727 60.0897 306.103 66.8967 313.961C60.2071 311.733 53.7521 309.387 47.7666 306.924C42.2505 301.647 42.9547 287.104 42.9547 286.987H42.4853C42.4853 287.573 41.8984 300.708 46.8277 306.572C39.0817 303.406 32.1573 300.357 26.5239 297.776C24.1766 292.03 24.9982 284.406 24.9982 284.289Z" fill="#9B9B9B"/>
<path opacity="0.5" d="M38.6121 285.696C38.6121 285.696 32.3919 284.172 28.2842 284.289C28.2842 284.289 59.3853 315.251 93.6553 320.411L92.8338 318.066L64.9014 293.906L38.6121 285.696Z" fill="#C1C1C1"/>
<path d="M101.284 322.757C99.1714 319.942 89.7823 316.893 86.1441 315.017C74.1731 308.801 62.7889 302.233 51.522 294.844C33.4481 282.882 12.4402 265.055 4.22478 244.414C1.17335 236.79 -1.526 222.834 7.51095 218.143C14.318 214.624 23.3549 219.785 28.9884 223.655C43.8934 233.858 55.2776 248.401 65.9577 262.709C78.2808 279.129 89.0782 296.838 99.8755 314.313L101.284 322.757Z" fill="#B28400"/>
<path d="M80.9801 301.646C73.4688 285.344 73.3515 272.326 73.3515 272.209H72.6473C72.6473 272.326 72.6473 284.641 79.6891 300.474C73.8209 295.079 68.1875 289.918 63.0235 284.875C54.9255 261.771 57.2728 251.216 57.3901 251.099L56.8033 250.981C56.686 251.45 54.4561 261.419 62.0846 283.937C55.2776 277.252 49.0574 270.919 43.4239 264.938C35.2085 244.179 38.1426 230.574 38.1426 230.457L37.5558 230.34C37.5558 230.457 34.7391 243.593 42.3677 263.765C35.4433 256.376 29.4578 249.691 24.5285 243.827C16.4305 228.698 19.0125 218.26 19.1298 218.143L18.543 218.025C18.543 218.143 16.0784 227.642 22.7681 241.716C11.1492 228.112 5.39839 219.902 5.28102 219.667L4.69421 220.019C4.81157 220.254 10.9144 229.05 23.1202 243.358C19.7167 242.185 9.38873 238.901 2.81641 240.543L2.93377 241.13C10.445 239.253 23.5896 244.179 23.9417 244.296C28.871 250.043 34.7391 256.728 41.6635 264.117C38.0253 262.592 28.4015 259.308 15.3742 262.944L15.4916 263.53C31.9224 259.074 42.8371 265.407 42.8371 265.407C48.3532 271.271 54.4561 277.487 61.2631 284.054C57.9769 282.882 49.7615 280.888 37.4384 284.406L37.6732 284.993C53.3998 280.536 62.4367 285.227 62.5541 285.227C67.366 289.918 72.5299 294.727 78.046 299.77C75.3466 298.832 70.1827 298.363 60.6763 300.239L60.7936 300.826C73.5862 298.245 78.2807 300.239 79.8064 301.295C86.0267 306.924 92.599 312.671 99.6408 318.652L100.11 318.183C93.3032 312.671 86.9656 307.159 80.9801 301.646Z" fill="#9B9B9B"/>
<g opacity="0.5" filter="url(#filter0_f)">
<path d="M481.657 340.818C481.657 347.034 419.455 352.077 342.582 352.077C265.827 352.077 203.507 347.034 203.507 340.818C203.507 334.602 265.71 329.559 342.582 329.559C419.338 329.559 481.657 334.602 481.657 340.818Z" fill="#6D6D6D"/>
</g>
<path d="M395.161 279.949H277.916V334.016H395.161V279.949Z" fill="#E6E8EA" stroke="#9F9F9F" stroke-miterlimit="10"/>
<path d="M430.839 338.59C430.839 339.88 429.783 340.818 428.609 340.818H244.467C243.176 340.818 242.237 339.763 242.237 338.59V329.559C242.237 328.269 243.294 327.331 244.467 327.331H428.609C429.9 327.331 430.839 328.386 430.839 329.559V338.59Z" fill="#F3F3F3"/>
<path d="M504.778 281.709C504.778 284.289 502.665 286.4 500.083 286.4H172.876C170.294 286.4 168.181 284.289 168.181 281.709V63.5667C168.181 60.9865 170.294 58.8755 172.876 58.8755H500.083C502.665 58.8755 504.778 60.9865 504.778 63.5667V281.709Z" fill="#F3F3F3"/>
<path opacity="0.3" d="M395.161 286.4H277.329V300.239H395.161V286.4Z" fill="#99B5C6"/>
<path d="M498.44 65.5605H174.519V266.462H498.44V65.5605Z" fill="#6CC3FF"/>
<path opacity="0.5" d="M498.44 65.5605H189.776V68.7271H498.44V65.5605Z" fill="#9ABAD8"/>
<g clip-path="url(#clip0)">
<path d="M554.348 20.0466H483.473C480.683 20.0466 478.41 22.2916 478.41 25.0466V70.0466C478.41 72.8066 480.683 75.0466 483.473 75.0466H554.348C557.142 75.0466 559.41 72.8066 559.41 70.0466V25.0466C559.41 22.2916 557.142 20.0466 554.348 20.0466Z" fill="#642769"/>
<path d="M559.41 30.0466H478.41V45.0466H559.41V30.0466Z" fill="#B28400"/>
<path d="M501.191 60.0466H491.066C489.669 60.0466 488.535 58.9266 488.535 57.5466C488.535 56.1666 489.669 55.0466 491.066 55.0466H501.191C502.589 55.0466 503.723 56.1666 503.723 57.5466C503.723 58.9266 502.589 60.0466 501.191 60.0466Z" fill="#FAFAFA"/>
<path d="M559.41 44.7766V25.0466C559.41 22.2916 557.142 20.0466 554.348 20.0466H513.848V25.0466C513.848 40.7066 519.882 50.2416 535.394 59.0616C536.538 59.7066 537.844 60.0466 539.16 60.0466C540.476 60.0466 541.783 59.7066 542.942 59.0516C550.617 54.6966 555.963 50.1516 559.41 44.7766Z" fill="#2A9AF9"/>
<path d="M557.876 12.7516L540.157 5.25157C539.515 4.98157 538.801 4.98157 538.158 5.25157L520.439 12.7516C519.513 13.1416 518.91 14.0466 518.91 15.0466V25.0466C518.91 38.8016 524.059 46.8416 537.9 54.7166C538.289 54.9366 538.725 55.0466 539.16 55.0466C539.596 55.0466 540.031 54.9366 540.421 54.7166C554.262 46.8616 559.41 38.8216 559.41 25.0466V15.0466C559.41 14.0466 558.808 13.1416 557.876 12.7516Z" fill="#E9B319"/>
<path d="M536.629 37.5466C536.594 37.5466 536.553 37.5466 536.523 37.5466C535.718 37.5116 534.974 37.1016 534.523 36.4366L529.46 28.9366C528.686 27.7866 529 26.2366 530.164 25.4716C531.318 24.7116 532.893 25.0116 533.672 26.1666L536.816 30.8216L544.775 20.9916C545.65 19.9166 547.245 19.7466 548.333 20.6016C549.427 21.4666 549.599 23.0366 548.728 24.1166L538.603 36.6166C538.122 37.2016 537.393 37.5466 536.629 37.5466Z" fill="#FAFAFA"/>
</g>
<path opacity="0.3" d="M430.722 338.59H242.12V340.818H430.722V338.59Z" fill="#99B5C6"/>
<path d="M340.118 276.314C340.118 278.308 338.475 279.95 336.48 279.95C334.484 279.95 332.841 278.308 332.841 276.314C332.841 274.32 334.484 272.678 336.48 272.678C338.475 272.678 340.118 274.32 340.118 276.314Z" fill="#153556"/>
<path d="M470.156 201.372H202.92V266.58H470.156V201.372Z" fill="#153556"/>
<path d="M470.038 255.203C470.038 261.419 464.992 266.462 458.772 266.462H214.187C207.967 266.462 202.92 261.419 202.92 255.203V15.5988C202.92 9.38292 207.967 4.33984 214.187 4.33984H458.772C464.992 4.33984 470.038 9.38292 470.038 15.5988V255.203V255.203Z" fill="#3E3E3E"/>
<path opacity="0.5" d="M358.778 37.5303H308.782V42.9252H358.778V37.5303Z" fill="#E2E2E2"/>
<path opacity="0.5" d="M370.045 37.6479H362.534V43.2774H370.045V37.6479Z" fill="#E2E2E2"/>
<path opacity="0.4" d="M293.29 70.3691H242.941V75.9987H293.29V70.3691Z" fill="#E2E2E2"/>
<path opacity="0.4" d="M331.081 70.3691H296.928V75.9987H331.081V70.3691Z" fill="#E2E2E2"/>
<path opacity="0.4" d="M336.479 70.3691H334.836V75.9987H336.479V70.3691Z" fill="#E2E2E2"/>
<path opacity="0.4" d="M220.407 79.0479H218.764V84.6772H220.407V79.0479Z" fill="#E2E2E2"/>
<path opacity="0.5" d="M374.74 37.4131H373.097V43.0425H374.74V37.4131Z" fill="#E2E2E2"/>
<path opacity="0.4" d="M374.505 59.814H372.862V65.4435H374.505V59.814Z" fill="#E2E2E2"/>
<path opacity="0.4" d="M313.945 59.814H242.941V65.4435H313.945V59.814Z" fill="#E2E2E2"/>
<path opacity="0.2" d="M369.928 59.814H318.405V65.4435H369.928V59.814Z" fill="#E2E2E2"/>
<path opacity="0.4" d="M345.516 49.2583H307.96V54.8878H345.516V49.2583Z" fill="#E2E2E2"/>
<path opacity="0.4" d="M437.177 49.2583H349.272V54.8878H437.177V49.2583Z" fill="#E2E2E2"/>
<path opacity="0.5" d="M269.582 206.767H219.586V212.161H269.582V206.767Z" fill="#E2E2E2"/>
<path opacity="0.5" d="M280.849 206.767H273.338V212.396H280.849V206.767Z" fill="#E2E2E2"/>
<path opacity="0.4" d="M303.031 218.377H242.941V224.007H303.031V218.377Z" fill="#E2E2E2"/>
<path opacity="0.1" d="M293.29 239.488H242.941V245.117H293.29V239.488Z" fill="#E2E2E2"/>
<path opacity="0.4" d="M331.081 239.488H296.928V245.117H331.081V239.488Z" fill="#E2E2E2"/>
<path opacity="0.4" d="M336.479 239.488H334.836V245.117H336.479V239.488Z" fill="#E2E2E2"/>
<path opacity="0.4" d="M220.407 248.284H218.764V253.913H220.407V248.284Z" fill="#E2E2E2"/>
<path opacity="0.5" d="M285.544 206.532H283.901V212.162H285.544V206.532Z" fill="#E2E2E2"/>
<path opacity="0.4" d="M374.505 228.933H372.862V234.562H374.505V228.933Z" fill="#E2E2E2"/>
<path opacity="0.4" d="M313.945 228.933H242.941V234.562H313.945V228.933Z" fill="#E2E2E2"/>
<path opacity="0.2" d="M369.928 228.933H318.405V234.562H369.928V228.933Z" fill="#E2E2E2"/>
<path opacity="0.4" d="M345.516 218.377H307.96V224.007H345.516V218.377Z" fill="#E2E2E2"/>
<path opacity="0.2" d="M437.177 218.377H349.272V224.007H437.177V218.377Z" fill="#E2E2E2"/>
<path opacity="0.5" d="M269.582 106.609H219.586V112.004H269.582V106.609Z" fill="#E2E2E2"/>
<path opacity="0.5" d="M280.849 106.726H273.338V112.356H280.849V106.726Z" fill="#E2E2E2"/>
<path opacity="0.4" d="M303.031 118.337H242.941V123.966H303.031V118.337Z" fill="#E2E2E2"/>
<path opacity="0.2" d="M293.29 139.447H242.941V145.077H293.29V139.447Z" fill="#E2E2E2"/>
<path opacity="0.2" d="M331.081 139.447H296.928V145.077H331.081V139.447Z" fill="#E2E2E2"/>
<path opacity="0.4" d="M336.479 139.447H334.836V145.077H336.479V139.447Z" fill="#E2E2E2"/>
<path opacity="0.4" d="M220.407 179.909H218.764V185.539H220.407V179.909Z" fill="#E2E2E2"/>
<path opacity="0.5" d="M285.544 106.492H283.901V112.121H285.544V106.492Z" fill="#E2E2E2"/>
<path opacity="0.4" d="M374.505 128.892H372.862V134.522H374.505V128.892Z" fill="#E2E2E2"/>
<path opacity="0.4" d="M313.945 128.892H242.941V134.522H313.945V128.892Z" fill="#E2E2E2"/>
<path opacity="0.4" d="M369.928 128.892H318.405V134.522H369.928V128.892Z" fill="#E2E2E2"/>
<path opacity="0.4" d="M345.516 118.337H307.96V123.966H345.516V118.337Z" fill="#E2E2E2"/>
<path opacity="0.4" d="M437.177 118.337H349.272V123.966H437.177V118.337Z" fill="#E2E2E2"/>
<path opacity="0.4" d="M303.031 149.534H242.941V155.163H303.031V149.534Z" fill="#E2E2E2"/>
<path opacity="0.4" d="M293.29 170.527H242.941V176.156H293.29V170.527Z" fill="#E2E2E2"/>
<path opacity="0.4" d="M331.081 170.527H296.928V176.156H331.081V170.527Z" fill="#E2E2E2"/>
<path opacity="0.4" d="M336.479 170.527H334.836V176.156H336.479V170.527Z" fill="#E2E2E2"/>
<path opacity="0.4" d="M374.505 159.972H372.862V165.601H374.505V159.972Z" fill="#E2E2E2"/>
<path opacity="0.1" d="M313.945 159.972H242.941V165.601H313.945V159.972Z" fill="#E2E2E2"/>
<path opacity="0.4" d="M369.928 159.972H318.405V165.601H369.928V159.972Z" fill="#E2E2E2"/>
<path opacity="0.4" d="M345.516 149.534H307.96V155.163H345.516V149.534Z" fill="#E2E2E2"/>
<path opacity="0.4" d="M437.177 149.534H349.272V155.163H437.177V149.534Z" fill="#E2E2E2"/>
<path d="M52.813 104.146L63.8451 105.905L54.5734 98.1646L52.813 104.146Z" fill="white"/>
<path d="M382.134 242.772C382.134 244.062 381.077 245.117 379.786 245.117H293.055C291.764 245.117 290.708 244.062 290.708 242.772V224.476C290.708 223.186 291.764 222.13 293.055 222.13H379.786C381.077 222.13 382.134 223.186 382.134 224.476V242.772Z" fill="#153556"/>
<path d="M458.771 4.33984H214.187C207.967 4.33984 202.92 9.38292 202.92 15.5988V19.3518H470.156V15.5988C470.038 9.38292 464.992 4.33984 458.771 4.33984Z" fill="#E9B319" stroke="#E9B319" stroke-miterlimit="10"/>
<path d="M462.41 10.2041L461.823 9.61768L459.358 12.0806L456.893 9.61768L456.307 10.2041L458.771 12.667L456.307 15.0126L456.893 15.599L459.358 13.2534L461.823 15.599L462.41 15.0126L459.945 12.667L462.41 10.2041Z" fill="#153556"/>
<path d="M336.479 58.0547C310.19 58.0547 288.83 79.3997 288.83 105.671V138.978H301.036V105.671C301.036 86.202 316.88 70.2519 336.479 70.2519C355.962 70.2519 371.923 86.0847 371.923 105.671V107.899C372.04 107.899 372.04 107.899 372.158 107.899C374.74 107.899 376.735 110.01 376.735 112.473C376.735 115.053 374.622 117.047 372.158 117.047C372.04 117.047 372.04 117.047 371.923 117.047V121.503H384.129V105.553C384.129 79.3997 362.769 58.0547 336.479 58.0547Z" fill="#F3F3F3"/>
<path d="M372.158 107.312C369.341 118.454 354.436 127.016 336.597 127.016C318.64 127.016 303.852 118.454 301.036 107.312H282.375C282.375 107.312 282.375 134.873 282.375 161.144C282.375 192.341 336.597 214.272 336.597 214.272C336.597 214.272 390.818 192.341 390.818 161.144C390.818 129.948 390.818 107.312 390.818 107.312H372.158Z" fill="#E9B319"/>
<path d="M390.701 161.144C390.701 129.948 390.701 107.312 390.701 107.312H372.04C369.224 118.454 354.319 127.016 336.479 127.016V214.39C336.479 214.39 390.701 192.341 390.701 161.144Z" fill="#C1C1C1"/>
<path d="M345.751 159.268C345.751 154.108 341.643 150.003 336.479 150.003C331.315 150.003 327.208 154.108 327.208 159.268C327.208 162.786 329.203 165.836 332.019 167.477L330.259 191.52C330.142 192.458 330.846 193.162 331.785 193.162H341.056C341.995 193.162 342.582 192.458 342.582 191.52L340.822 167.477C343.756 165.836 345.751 162.786 345.751 159.268Z" fill="#0A1D35"/>
<path d="M310.777 233.624C310.777 236.321 308.547 238.549 305.848 238.549C303.148 238.549 300.918 236.321 300.918 233.624C300.918 230.926 303.148 228.698 305.848 228.698C308.547 228.698 310.777 230.809 310.777 233.624Z" fill="#F3F3F3"/>
<path d="M321.222 238.549C323.945 238.549 326.151 236.344 326.151 233.624C326.151 230.903 323.945 228.698 321.222 228.698C318.5 228.698 316.293 230.903 316.293 233.624C316.293 236.344 318.5 238.549 321.222 238.549Z" fill="#F3F3F3"/>
<path d="M341.409 233.624C341.409 236.321 339.179 238.549 336.48 238.549C333.78 238.549 331.55 236.321 331.55 233.624C331.55 230.926 333.78 228.698 336.48 228.698C339.179 228.698 341.409 230.809 341.409 233.624Z" fill="#F3F3F3"/>
<path d="M356.783 233.624C356.783 236.321 354.553 238.549 351.854 238.549C349.155 238.549 346.925 236.321 346.925 233.624C346.925 230.926 349.155 228.698 351.854 228.698C354.553 228.698 356.783 230.809 356.783 233.624Z" fill="#F3F3F3"/>
<path d="M372.04 233.624C372.04 236.321 369.81 238.549 367.111 238.549C364.412 238.549 362.182 236.321 362.182 233.624C362.182 230.926 364.412 228.698 367.111 228.698C369.81 228.698 372.04 230.809 372.04 233.624Z" fill="#F3F3F3"/>
<path d="M594.795 250.16C594.795 251.802 593.387 253.21 591.744 253.21H488.934C487.291 253.21 485.882 251.802 485.882 250.16V87.375C485.882 85.733 487.291 84.3257 488.934 84.3257H591.744C593.387 84.3257 594.795 85.733 594.795 87.375V250.16Z" fill="#F3F3F3"/>
<path opacity="0.4" d="M581.298 102.739H522.5V109.072H581.298V102.739Z" fill="#9ABAD8"/>
<path opacity="0.4" d="M586.345 231.161H494.333V235.852H586.345V231.161Z" fill="#9ABAD8"/>
<path opacity="0.4" d="M562.403 238.081H500.67V242.772H562.403V238.081Z" fill="#9ABAD8"/>
<path opacity="0.4" d="M568.623 110.831H522.5V117.164H568.623V110.831Z" fill="#9ABAD8"/>
<path opacity="0.2" d="M543.507 95.8193H522.5V98.7513H543.507V95.8193Z" fill="#9ABAD8"/>
<path opacity="0.2" d="M532.945 220.254H511.937V223.186H532.945V220.254Z" fill="#9ABAD8"/>
<path opacity="0.4" d="M527.194 216.384H511.937V219.316H527.194V216.384Z" fill="#9ABAD8"/>
<path opacity="0.2" d="M577.66 220.254H556.652V223.186H577.66V220.254Z" fill="#9ABAD8"/>
<path opacity="0.4" d="M571.909 216.384H556.652V219.316H571.909V216.384Z" fill="#9ABAD8"/>
<path d="M515.81 105.084C515.81 111.769 510.411 117.164 503.722 117.164C497.032 117.164 491.633 111.769 491.633 105.084C491.633 98.3993 497.032 93.0044 503.722 93.0044C510.411 93.0044 515.81 98.3993 515.81 105.084Z" fill="#E9B319"/>
<path d="M587.049 127.954H492.689V185.539H587.049V127.954Z" fill="#9ABAD8"/>
<path d="M587.049 181.317H492.689V200.434H587.049V181.317Z" fill="white"/>
<path d="M497.501 181.317L524.964 144.021L544.681 165.132L558.648 151.176L583.059 181.317H497.501Z" fill="#153556"/>
<path opacity="0.5" d="M513.932 159.151L520.27 156.336L525.551 163.49L529.424 153.169H533.532L524.964 144.021L513.932 159.151Z" fill="#9ABAD8"/>
<path opacity="0.5" d="M554.07 155.632L555.244 160.558L558.178 156.688L564.75 158.682L558.647 151.176L554.07 155.632Z" fill="#9ABAD8"/>
<path d="M544.681 165.132L559.469 181.317L547.146 162.669L544.681 165.132Z" fill="#9ABAD8"/>
<path opacity="0.4" d="M541.747 185.539H497.501V191.872H541.747V185.539Z" fill="#9ABAD8"/>
<path opacity="0.2" d="M531.889 193.631H497.501V196.798H531.889V193.631Z" fill="#9ABAD8"/>
<path opacity="0.4" d="M568.506 185.539H544.681V191.872H568.506V185.539Z" fill="#9ABAD8"/>
<path d="M508.533 220.84C508.533 222.13 507.477 223.186 506.186 223.186H496.562C495.271 223.186 494.215 222.13 494.215 220.84V211.223C494.215 209.933 495.271 208.878 496.562 208.878H506.186C507.477 208.878 508.533 209.933 508.533 211.223V220.84Z" fill="#E9B319"/>
<path d="M552.662 220.84C552.662 222.13 551.605 223.186 550.314 223.186H540.691C539.4 223.186 538.343 222.13 538.343 220.84V211.223C538.343 209.933 539.4 208.878 540.691 208.878H550.314C551.605 208.878 552.662 209.933 552.662 211.223V220.84Z" fill="#275389"/>
<path d="M507.477 104.029V102.387C507.477 100.393 505.834 98.6338 503.839 98.6338C501.844 98.6338 500.083 100.276 500.083 102.269V103.911H499.027V110.479L508.533 110.596V104.029H507.477ZM500.905 102.387C500.905 100.862 502.196 99.572 503.721 99.572C505.247 99.572 506.538 100.862 506.538 102.387V104.029H500.905V102.387ZM502.782 108.72L503.017 107.43C502.9 107.313 502.782 107.078 502.782 106.843C502.782 106.374 503.252 105.905 503.721 105.905C504.191 105.905 504.66 106.374 504.66 106.843C504.66 107.078 504.543 107.313 504.426 107.43L504.66 108.837L502.782 108.72Z" fill="#123456"/>
<path opacity="0.5" d="M488.934 84.3253L504.778 79.2822V84.3253" fill="#9ABAD8"/>
<path opacity="0.5" d="M485.882 89.8374L481.305 238.08L485.882 248.518V89.8374Z" fill="#9ABAD8"/>
<path d="M195.174 103.677C195.174 104.967 194.118 105.905 192.945 105.905H116.307C115.016 105.905 114.077 104.85 114.077 103.677V6.09942C114.077 4.80933 115.133 3.87109 116.307 3.87109H192.945C194.236 3.87109 195.174 4.92661 195.174 6.09942V103.677V103.677Z" fill="#F3F3F3"/>
<path d="M192.944 3.87109H116.307C115.016 3.87109 114.077 4.92661 114.077 6.09942V15.2473H195.292V6.09942C195.174 4.80933 194.118 3.87109 192.944 3.87109Z" fill="#E9B319"/>
<path d="M191.301 7.97581L190.832 7.3894L188.837 9.38318L186.842 7.3894L186.372 7.97581L188.367 9.96958L186.372 11.9634L186.842 12.4325L188.837 10.4387L190.832 12.4325L191.301 11.9634L189.306 9.96958L191.301 7.97581Z" fill="#153556"/>
<path opacity="0.4" d="M178.626 22.167H119.827V28.5002H178.626V22.167Z" fill="#9ABAD8"/>
<path opacity="0.3" d="M149.168 31.7839H119.827V34.9505H149.168V31.7839Z" fill="#9ABAD8"/>
<path opacity="0.2" d="M172.993 76.2334H143.652V79.4H172.993V76.2334Z" fill="#9ABAD8"/>
<path opacity="0.2" d="M142.126 76.2334H138.958V79.4H142.126V76.2334Z" fill="#9ABAD8"/>
<path opacity="0.2" d="M165.13 31.7839H153.276V34.9505H165.13V31.7839Z" fill="#9ABAD8"/>
<path opacity="0.2" d="M130.86 96.6401H119.006V99.8067H130.86V96.6401Z" fill="#9ABAD8"/>
<path opacity="0.2" d="M161.374 96.6401H133.089V99.8067H161.374V96.6401Z" fill="#9ABAD8"/>
<path d="M125.226 54.1844C125.93 53.7153 126.282 53.0116 126.282 52.1907C126.282 50.7833 125.226 49.7278 123.818 49.7278C122.409 49.7278 121.353 50.7833 121.353 52.1907C121.353 53.0116 121.823 53.8326 122.409 54.3017C120.766 54.8881 119.593 56.4128 119.593 58.172L127.926 58.2893C128.043 56.2955 126.869 54.7708 125.226 54.1844Z" fill="#006DC9"/>
<path d="M127.221 66.6161V65.326C127.221 63.5668 125.813 62.1594 124.17 62.1594C122.409 62.1594 121.001 63.5668 121.001 65.2087V66.4988H120.062V72.0111L128.043 72.1283V66.6161H127.221ZM121.705 65.2087C121.705 63.9186 122.761 62.8631 124.052 62.8631C125.343 62.8631 126.4 63.9186 126.4 65.2087V66.4988H121.588L121.705 65.2087ZM123.348 70.6037L123.583 69.4309C123.466 69.3136 123.348 69.079 123.348 68.8444C123.348 68.3753 123.7 68.1408 124.17 68.1408C124.639 68.1408 124.874 68.4926 124.874 68.9617C124.874 69.1963 124.757 69.3136 124.639 69.5481L124.874 70.721L123.348 70.6037Z" fill="#006DC9"/>
<path d="M186.959 48.7895C186.959 48.0858 186.372 47.6167 185.785 47.6167H133.794C133.09 47.6167 132.62 48.0858 132.62 48.7895V56.9992C132.62 57.5856 133.09 58.172 133.794 58.172H185.785C186.372 58.172 186.959 57.5856 186.959 56.9992V48.7895Z" fill="white"/>
<path d="M186.959 62.7458C186.959 62.0421 186.372 61.573 185.785 61.573H133.794C133.09 61.573 132.62 62.0421 132.62 62.7458V70.9555C132.62 71.6592 133.09 72.1283 133.794 72.1283H185.785C186.372 72.1283 186.959 71.6592 186.959 70.9555V62.7458Z" fill="white"/>
<path opacity="0.7" d="M140.131 52.8945C140.131 53.95 139.31 54.771 138.253 54.771C137.197 54.771 136.375 53.95 136.375 52.8945C136.375 51.839 137.197 51.018 138.253 51.018C139.31 50.9007 140.131 51.839 140.131 52.8945Z" fill="#9ABAD8"/>
<path opacity="0.7" d="M146.703 52.8945C146.703 53.95 145.882 54.771 144.826 54.771C143.769 54.771 142.948 53.95 142.948 52.8945C142.948 51.839 143.769 51.018 144.826 51.018C145.882 50.9007 146.703 51.839 146.703 52.8945Z" fill="#9ABAD8"/>
<path opacity="0.7" d="M151.398 54.7708C152.435 54.7708 153.276 53.9307 153.276 52.8943C153.276 51.858 152.435 51.0178 151.398 51.0178C150.361 51.0178 149.52 51.858 149.52 52.8943C149.52 53.9307 150.361 54.7708 151.398 54.7708Z" fill="#9ABAD8"/>
<path opacity="0.7" d="M159.848 52.8945C159.848 53.95 159.027 54.771 157.971 54.771C156.914 54.771 156.093 53.95 156.093 52.8945C156.093 51.839 156.914 51.018 157.971 51.018C158.909 50.9007 159.848 51.839 159.848 52.8945Z" fill="#9ABAD8"/>
<path opacity="0.7" d="M166.421 52.8945C166.421 53.95 165.599 54.771 164.543 54.771C163.487 54.771 162.665 53.95 162.665 52.8945C162.665 51.839 163.487 51.018 164.543 51.018C165.482 50.9007 166.421 51.839 166.421 52.8945Z" fill="#9ABAD8"/>
<path opacity="0.7" d="M140.131 66.8508C140.131 67.9064 139.31 68.7273 138.253 68.7273C137.197 68.7273 136.375 67.9064 136.375 66.8508C136.375 65.7953 137.197 64.9744 138.253 64.9744C139.31 64.9744 140.131 65.7953 140.131 66.8508Z" fill="#9ABAD8"/>
<path opacity="0.7" d="M146.703 66.8508C146.703 67.9064 145.882 68.7273 144.826 68.7273C143.769 68.7273 142.948 67.9064 142.948 66.8508C142.948 65.7953 143.769 64.9744 144.826 64.9744C145.882 64.9744 146.703 65.7953 146.703 66.8508Z" fill="#9ABAD8"/>
<path opacity="0.7" d="M153.276 66.8508C153.276 67.9064 152.454 68.7273 151.398 68.7273C150.342 68.7273 149.52 67.9064 149.52 66.8508C149.52 65.7953 150.342 64.9744 151.398 64.9744C152.454 64.9744 153.276 65.7953 153.276 66.8508Z" fill="#9ABAD8"/>
<path opacity="0.7" d="M159.848 66.8508C159.848 67.9064 159.027 68.7273 157.971 68.7273C156.914 68.7273 156.093 67.9064 156.093 66.8508C156.093 65.7953 156.914 64.9744 157.971 64.9744C158.909 64.9744 159.848 65.7953 159.848 66.8508Z" fill="#9ABAD8"/>
<path opacity="0.7" d="M166.421 66.8508C166.421 67.9064 165.599 68.7273 164.543 68.7273C163.487 68.7273 162.665 67.9064 162.665 66.8508C162.665 65.7953 163.487 64.9744 164.543 64.9744C165.482 64.9744 166.421 65.7953 166.421 66.8508Z" fill="#9ABAD8"/>
<path opacity="0.7" d="M172.993 66.8508C172.993 67.9064 172.171 68.7273 171.115 68.7273C170.059 68.7273 169.237 67.9064 169.237 66.8508C169.237 65.7953 170.059 64.9744 171.115 64.9744C172.171 64.9744 172.993 65.7953 172.993 66.8508Z" fill="#9ABAD8"/>
<path opacity="0.7" d="M179.565 66.8508C179.565 67.9064 178.744 68.7273 177.687 68.7273C176.631 68.7273 175.81 67.9064 175.81 66.8508C175.81 65.7953 176.631 64.9744 177.687 64.9744C178.744 64.9744 179.565 65.7953 179.565 66.8508Z" fill="#9ABAD8"/>
<path opacity="0.5" d="M191.302 105.905L168.181 112.121V105.905H191.302Z" fill="#9ABAD8"/>
<path opacity="0.5" d="M195.174 58.8755V99.8065L199.986 58.8755H195.174Z" fill="#9ABAD8"/>
<path d="M184.26 326.041C184.26 327.449 183.086 328.504 181.795 328.504H96.1204C94.712 328.504 93.6558 327.331 93.6558 326.041V198.674C93.6558 197.267 94.8294 196.211 96.1204 196.211H181.795C183.204 196.211 184.26 197.384 184.26 198.674V326.041Z" fill="#F3F3F3"/>
<path d="M138.958 273.03C133.324 273.03 128.278 270.919 124.757 267.049C124.405 266.697 124.405 266.111 124.757 265.759C125.109 265.407 125.696 265.407 126.048 265.759C129.334 269.277 133.794 271.036 138.958 271.036C140.953 271.036 142.948 270.685 144.826 270.098C145.295 269.981 145.882 270.215 146 270.685C146.117 271.154 145.882 271.74 145.413 271.857C143.3 272.678 141.188 273.03 138.958 273.03ZM152.572 267.753C156.797 263.53 159.144 257.315 159.144 249.574C159.144 244.531 158.44 239.488 157.149 234.914C157.032 234.445 156.445 234.093 155.975 234.328C155.506 234.445 155.154 235.031 155.389 235.5C156.68 239.84 157.266 244.766 157.266 249.691C157.266 256.845 155.154 262.71 151.281 266.58C150.929 266.932 150.929 267.518 151.281 267.87C151.516 268.104 151.75 268.104 151.985 268.104C152.102 267.987 152.337 267.87 152.572 267.753ZM121.705 260.481C122.175 260.364 122.41 259.777 122.292 259.308C121.236 256.376 120.766 253.093 120.766 249.457C120.766 234.328 127.104 218.964 139.075 218.964C143.418 218.964 147.291 220.958 150.342 224.828C150.694 225.18 151.281 225.297 151.633 224.945C151.985 224.593 152.102 224.007 151.75 223.655C148.347 219.316 144.004 217.087 139.075 217.087C132.737 217.087 127.456 220.723 123.701 227.643C120.649 233.389 118.889 241.364 118.889 249.34C118.889 253.21 119.475 256.728 120.532 259.778C120.649 260.129 121.001 260.364 121.353 260.364C121.471 260.598 121.588 260.598 121.705 260.481ZM154.45 249.574C154.45 249.105 153.98 248.636 153.511 248.636C153.041 248.636 152.572 249.105 152.572 249.574C152.572 260.129 147.291 266.58 138.84 266.58C137.667 266.58 136.61 266.462 135.554 266.228C135.085 266.111 134.615 266.462 134.498 266.932C134.381 267.401 134.733 267.87 135.202 267.987C136.376 268.222 137.667 268.339 138.958 268.339C148.582 268.456 154.45 261.185 154.45 249.574ZM153.276 243.945C153.745 243.827 154.098 243.358 154.098 242.889C152.807 233.155 148.112 221.779 138.958 221.779C134.381 221.779 130.508 224.593 127.691 229.988C127.456 230.457 127.574 231.044 128.043 231.278C128.512 231.513 129.099 231.396 129.334 230.927C131.094 227.643 134.146 223.655 138.958 223.655C146.821 223.655 151.046 234.21 152.22 243.124C152.337 243.593 152.689 243.945 153.159 243.945C153.159 243.945 153.276 243.945 153.276 243.945ZM130.39 264.821C130.742 264.469 130.742 263.882 130.273 263.53C126.987 260.598 125.226 255.79 125.226 249.574C125.226 246.173 125.578 242.655 126.283 239.371C126.4 238.902 126.048 238.432 125.578 238.315C125.109 238.198 124.639 238.55 124.522 239.019C123.818 242.42 123.348 246.056 123.348 249.574C123.348 256.259 125.344 261.654 128.982 264.938C129.099 265.055 129.334 265.172 129.569 265.172C129.921 265.055 130.273 265.055 130.39 264.821ZM149.872 249.574C149.872 243.827 148.816 238.315 146.938 233.976C146.704 233.507 146.234 233.272 145.765 233.507C145.295 233.741 145.061 234.21 145.295 234.679C147.056 238.784 147.995 244.062 147.995 249.574C147.995 254.265 146.821 262.006 138.958 262.006C134.498 262.006 131.681 259.543 130.508 254.617C130.39 254.148 129.921 253.796 129.334 253.913C128.865 254.031 128.512 254.5 128.63 255.086C130.038 260.833 133.559 263.765 138.958 263.765C145.765 263.765 149.872 258.487 149.872 249.574ZM129.921 249.574C129.921 238.198 134.146 228.346 138.958 228.346C139.779 228.346 140.483 228.581 141.305 229.167C141.774 229.402 142.244 229.402 142.596 228.933C142.831 228.464 142.831 227.994 142.361 227.643C141.305 226.939 140.131 226.47 138.958 226.47C132.972 226.47 128.043 236.791 128.043 249.574C128.043 250.043 128.512 250.512 128.982 250.512C129.451 250.395 129.921 250.043 129.921 249.574ZM145.295 249.574C145.295 239.371 141.774 231.865 139.31 231.161C138.84 231.044 138.254 231.278 138.136 231.747C138.019 232.217 138.254 232.803 138.723 232.92C139.779 233.272 143.418 239.253 143.418 249.574C143.418 250.043 143.887 250.512 144.356 250.512C144.826 250.395 145.295 250.043 145.295 249.574ZM142.948 257.666C143.3 257.315 143.3 256.728 142.948 256.376C142.596 256.025 142.009 256.025 141.657 256.376C141.07 257.08 140.249 257.315 138.958 257.315C137.197 257.315 136.258 256.728 135.554 255.321C134.615 253.444 134.498 250.864 134.498 249.574C134.498 245.821 134.967 242.303 135.906 239.136C136.024 238.667 135.789 238.081 135.319 237.963C134.85 237.846 134.263 238.081 134.146 238.55C133.207 241.834 132.62 245.587 132.62 249.457C132.62 250.981 132.738 253.796 133.911 256.025C134.967 258.136 136.493 259.074 138.958 259.074C140.718 259.191 142.009 258.722 142.948 257.666ZM139.545 252.272V243.476C139.545 243.006 139.075 242.537 138.606 242.537C138.136 242.537 137.667 243.006 137.667 243.476V252.272C137.667 252.741 138.136 253.21 138.606 253.21C139.192 253.21 139.545 252.741 139.545 252.272Z" fill="#006DC9"/>
<path d="M182.03 195.625H95.8857C94.5947 195.625 93.6558 196.681 93.6558 197.853V207.001H184.377V197.853C184.26 196.563 183.321 195.625 182.03 195.625Z" fill="#E9B319"/>
<path d="M180.27 199.73L179.683 199.261L177.688 201.255L175.81 199.261L175.223 199.73L177.218 201.724L175.223 203.717L175.81 204.187L177.688 202.193L179.683 204.187L180.27 203.717L178.275 201.724L180.27 199.73Z" fill="#153556"/>
<path opacity="0.5" d="M163.604 281.944H114.194V287.221H163.604V281.944Z" fill="#9ABAD8"/>
<path d="M153.159 289.684H124.875V292.733H153.159V289.684Z" fill="#9ABAD8"/>
<path d="M118.654 306.572V305.282C118.654 303.523 117.246 302.116 115.603 302.116C113.842 302.116 112.434 303.523 112.434 305.165V306.455H111.495V311.967L119.476 312.085V306.572H118.654ZM113.138 305.165C113.138 303.875 114.194 302.819 115.485 302.819C116.776 302.819 117.833 303.875 117.833 305.165V306.455H113.021L113.138 305.165ZM114.781 310.56L115.016 309.387C114.899 309.27 114.781 309.035 114.781 308.801C114.781 308.332 115.133 308.097 115.603 308.097C116.072 308.097 116.307 308.449 116.307 308.918C116.307 309.153 116.19 309.27 116.072 309.504L116.307 310.677L114.781 310.56Z" fill="#006DC9"/>
<path d="M147.525 308.214C147.525 312.554 144.005 316.072 139.662 316.072C135.32 316.072 131.799 312.554 131.799 308.214C131.799 303.875 135.32 300.357 139.662 300.357C144.005 300.239 147.525 303.758 147.525 308.214Z" fill="#006DC9"/>
<path d="M136.376 308.684L138.841 311.264L143.183 305.634" fill="#006DC9"/>
<path d="M138.958 312.085L136.024 309.035C135.789 308.801 135.789 308.449 136.024 308.214C136.258 307.98 136.611 307.98 136.845 308.214L138.84 310.325L142.831 305.165C143.066 304.93 143.418 304.93 143.652 305.048C143.887 305.282 143.887 305.634 143.77 305.869L138.958 312.085Z" fill="#F3F3F3"/>
<path d="M164.425 303.171C161.609 303.171 159.379 305.4 159.379 308.214C159.379 311.029 161.609 313.257 164.425 313.257C167.242 313.257 169.472 311.029 169.472 308.214C169.355 305.4 167.125 303.171 164.425 303.171ZM164.425 312.085C162.313 312.085 160.553 310.325 160.553 308.214C160.553 306.103 162.313 304.344 164.425 304.344C166.538 304.344 168.298 306.103 168.298 308.214C168.298 310.325 166.538 312.085 164.425 312.085Z" fill="#006DC9"/>
<path d="M164.778 307.042H163.956V310.794H164.778V307.042Z" fill="#006DC9"/>
<path d="M164.425 305.517C164.191 305.517 163.956 305.751 163.956 305.986C163.956 306.221 164.191 306.455 164.425 306.455C164.66 306.455 164.895 306.221 164.895 305.986C164.895 305.751 164.66 305.517 164.425 305.517Z" fill="#006DC9"/>
<path opacity="0.5" d="M184.26 199.26L189.776 286.4H184.26V199.26Z" fill="#9ABAD8"/>
<path opacity="0.5" d="M168.299 195.625H182.03L168.181 190.934L168.299 195.625Z" fill="#9ABAD8"/>
<g filter="url(#filter1_f)">
<path opacity="0.5" d="M570.501 403.212C570.501 407.434 524.495 410.952 467.691 410.952C410.888 410.952 364.881 407.434 364.881 403.212C364.881 398.99 410.888 395.471 467.691 395.471C524.495 395.471 570.501 398.99 570.501 403.212Z" fill="#6D6D6D"/>
</g>
<path d="M436.473 308.683H424.502V269.746H434.83L436.473 308.683Z" fill="#153556"/>
<path d="M424.502 269.746H423.68V307.51L426.262 309.973L424.502 269.746Z" fill="#F3F3F3"/>
<path d="M436.355 307.863L434.83 270.098H424.267" stroke="#F3F3F3" stroke-miterlimit="10"/>
<path d="M437.881 393.125C437.881 393.125 434.947 392.539 434.595 392.422C434.243 392.304 434.243 387.027 434.243 387.027C434.243 387.027 435.886 383.977 435.769 377.175C435.652 370.373 446.566 378.934 446.566 378.934L447.388 390.076L448.327 393.008C448.327 393.008 438.116 392.891 437.764 392.773" fill="#E2E2E2"/>
<path d="M414.644 380.576L408.658 389.842L407.484 394.415C407.484 394.415 397.861 391.249 397.626 391.132C397.391 391.014 399.738 382.922 399.738 382.922L404.668 375.299L414.644 380.576Z" fill="#E2E2E2"/>
<path d="M495.624 309.152C495.624 309.152 441.989 309.973 436.121 309.973C431.896 311.029 434.125 370.49 435.651 379.521C436.003 381.397 447.035 381.632 447.035 379.403C447.035 371.077 449.148 340.114 449.617 335.658C449.969 331.67 511.233 334.72 511.233 334.72L519.566 312.671L495.624 309.152Z" fill="#101E35"/>
<path d="M404.198 374.83C404.198 374.83 425.441 328.973 434.595 321.232C443.749 313.609 495.624 309.152 495.624 309.152L510.059 311.263L505.599 334.25L447.27 333.781C447.27 333.781 418.399 377.175 415.347 381.045C412.296 384.681 402.32 378.113 404.198 374.83Z" fill="#101E35"/>
<path d="M495.624 309.152C489.521 308.918 501.257 293.437 491.634 273.968C487.878 260.012 493.159 252.506 501.023 249.926C503.605 249.105 507.712 247.932 510.646 247.932C515.81 247.932 520.035 250.043 523.674 251.919C537.875 259.543 538.814 303.054 533.532 319.59C530.833 328.035 518.158 332.022 509.59 327.331C508.886 316.424 501.844 308.331 495.624 309.152Z" fill="#642769"/>
<path d="M448.679 340.584C448.679 335.072 451.378 329.911 462.058 330.146C472.738 330.38 498.323 330.146 504.309 330.146C510.294 330.146 513.698 311.733 517.805 293.437C521.913 275.141 538.696 277.604 543.156 292.147C547.498 306.22 541.982 321.467 538.461 329.559V334.954C538.461 334.954 507.36 334.837 500.436 334.837C492.338 334.837 493.394 340.466 493.394 340.466H448.679V340.584Z" fill="white"/>
<path d="M451.613 340.584C451.613 340.584 451.026 333.312 457.833 333.312C464.757 333.312 501.14 333.312 501.14 333.312L500.436 335.071C500.436 335.071 492.807 334.368 493.277 340.584H451.613Z" fill="#F3F3F3"/>
<path d="M451.73 403.211H448.679L457.95 333.312H463.936L451.73 403.211Z" fill="white"/>
<path d="M520.036 403.211H522.97L513.815 333.312H507.712L520.036 403.211Z" fill="white"/>
<path d="M476.259 403.211H473.208L482.362 333.312H488.465L476.259 403.211Z" fill="#F3F3F3"/>
<path d="M544.447 403.211H547.498L538.344 333.312H532.241L544.447 403.211Z" fill="#F3F3F3"/>
<path d="M538.578 332.491H457.95V335.071H538.578V332.491Z" fill="white"/>
<path d="M509.355 330.028C509.355 330.028 515.106 327.683 521.561 320.998C529.307 312.905 544.916 311.498 541.396 322.405L538.579 329.676L509.355 330.028Z" fill="#F3F3F3"/>
<path d="M515.341 232.803C513.698 236.908 515.693 248.988 516.397 250.512C515.693 251.568 513.815 252.975 509.707 250.747C506.186 248.87 502.431 249.574 502.431 249.574C502.431 249.574 503.252 245 502.079 240.895L515.341 232.803Z" fill="#FFAF99"/>
<path d="M502.313 242.302L508.534 237.142C508.534 237.142 510.177 240.895 502.9 245.234L502.313 242.302Z" fill="#B28400"/>
<path d="M493.746 224.007C493.629 230.926 499.145 236.556 506.069 236.673C512.994 236.79 518.627 231.278 518.744 224.358C518.862 217.439 513.346 211.809 506.421 211.692C499.497 211.692 493.863 217.204 493.746 224.007Z" fill="#FFAF99"/>
<path d="M493.746 224.007C493.159 231.278 495.389 243.124 499.497 242.889C502.783 242.772 508.769 239.722 510.06 235.618C511.351 231.513 514.989 227.056 514.989 227.056" fill="#FFAF99"/>
<path d="M494.45 229.167C494.45 229.167 492.455 234.914 492.924 235.5C493.394 236.087 495.976 235.969 495.976 235.969" fill="#FFAF99"/>
<path d="M496.445 229.753C496.445 230.574 497.032 231.278 497.502 231.278C498.088 231.278 498.441 230.574 498.441 229.636C498.441 228.815 497.854 228.112 497.384 228.112C496.797 228.229 496.445 228.933 496.445 229.753Z" fill="black"/>
<path d="M496.21 225.062C496.562 224.71 497.032 224.593 497.501 224.476C497.971 224.358 498.44 224.358 498.91 224.476C499.379 224.593 499.849 224.828 500.201 225.062C500.553 225.297 500.905 225.648 501.022 226.118C501.14 226.352 501.022 226.704 500.787 226.821C500.67 226.939 500.553 226.939 500.318 226.821L499.379 226.469C499.144 226.352 498.792 226.235 498.558 226.118C498.323 226 497.971 226 497.619 225.883C497.267 225.883 496.915 225.766 496.68 225.766H496.562C496.328 225.766 496.093 225.531 496.21 225.297C496.093 225.297 496.21 225.179 496.21 225.062Z" fill="black"/>
<path d="M407.836 394.298C408.188 398.638 405.841 403.212 405.841 403.212L376.5 395.237C376.5 395.237 375.679 392.422 377.909 390.428C381.195 387.731 387.063 388.669 387.063 388.669L399.973 382.688C399.973 382.688 401.029 384.095 399.621 387.027C398.447 389.607 401.264 391.484 403.024 391.601C406.428 391.835 407.719 392.305 407.836 394.298Z" fill="#101E35"/>
<path d="M376.735 391.953C375.914 393.595 376.383 395.354 376.383 395.354L405.724 403.329C405.724 403.329 406.428 402.039 407.015 400.162L376.735 391.953Z" fill="#101E35" stroke="#101E35" stroke-miterlimit="10" stroke-linecap="round" stroke-linejoin="round"/>
<path d="M448.679 393.712C450.204 397.817 449.031 402.86 449.031 402.86H417.695C417.695 402.86 416.052 400.279 417.812 397.817C420.277 394.298 426.262 393.712 426.262 393.712L434.126 384.564C434.126 384.564 434.83 385.619 434.947 388.903C435.065 392.539 439.759 393.712 442.811 392.422C445.862 391.249 447.975 391.835 448.679 393.712Z" fill="#101E35"/>
<path d="M417.108 399.458C416.756 401.335 417.695 402.742 417.695 402.742H449.03C449.03 402.742 449.383 401.335 449.383 399.458H417.108Z" fill="#101E35" stroke="#101E35" stroke-miterlimit="10" stroke-linecap="round" stroke-linejoin="round"/>
<path d="M465.462 296.134L445.393 302.35C445.393 302.35 439.29 304.227 436.004 304.579C433.774 305.282 431.544 306.572 429.666 307.511C430.253 308.801 440.229 307.393 445.979 308.449C447.975 308.097 469.569 305.869 469.569 305.869L465.462 296.134Z" fill="#FFAF99"/>
<path d="M491.633 273.968C489.99 282.764 480.836 287.221 472.621 289.449C470.743 289.918 469.921 290.974 470.039 293.437C468.63 292.968 464.992 294.492 464.171 295.313C462.88 296.721 466.987 305.634 468.396 306.22C470.391 307.041 474.851 305.751 476.259 304.696C478.958 307.393 482.479 306.455 485.765 305.4C497.854 301.295 515.927 292.616 518.627 278.894" fill="#642769"/>
<path d="M493.746 223.538C493.746 223.538 493.981 219.55 495.624 218.729C500.083 220.488 504.778 215.562 507.595 218.143C509.942 220.254 506.069 222.599 507.008 228.112C507.008 229.05 508.416 228.932 508.651 228.463C508.886 227.994 507.829 224.71 510.763 224.945C512.524 225.062 513.698 229.167 510.646 231.747C510.177 233.155 514.167 233.389 514.636 237.259C515.693 236.087 517.218 232.451 519.214 229.284C522.617 223.889 522.148 216.501 518.392 214.624C518.392 209.464 515.458 206.18 505.717 207.236C499.966 207.822 494.92 208.76 490.342 205.711C487.408 203.834 486.939 218.143 493.746 223.538Z" fill="#101E35"/>
<path d="M512.876 228.581C512.759 230.574 511.35 232.451 509.59 232.568C508.182 232.685 509.59 231.278 509.707 229.284C509.825 227.29 508.534 225.883 510.177 225.531C511.937 225.062 512.994 226.587 512.876 228.581Z" fill="#B28400"/>
<path d="M470.156 291.56C470.039 292.968 474.264 294.375 475.907 300.708C476.728 303.758 479.545 304.344 480.836 304.461C483.887 304.696 500.083 299.77 503.722 297.307C503.722 297.307 495.976 301.295 488.817 304.344C482.01 307.041 478.723 307.276 476.141 304.813C476.141 304.813 474.381 305.986 472.503 306.22C468.982 306.807 468.161 306.924 466.635 304.227C466.4 303.758 465.579 302.35 465.461 301.998C465.109 301.295 466.4 300.239 467.222 302.116C469.1 305.399 474.381 302.116 469.804 293.32C470.039 292.968 470.039 292.147 470.156 291.56Z" fill="#C1C1C1"/>
<path d="M464.875 300.122C465.462 301.646 465.344 304.109 459.711 305.048C454.077 305.986 446.449 307.628 446.449 307.628C446.449 307.628 442.458 306.572 434.947 307.862C434.947 307.862 441.872 307.862 446.097 308.566L468.044 306.103C467.926 305.869 466.635 304.696 464.875 300.122Z" fill="#B28400"/>
<path d="M423.68 307.51L463.818 308.801V309.973H425.793L423.68 307.51Z" fill="#F3F3F3"/>
<path d="M524.025 282.53C518.275 284.054 515.927 291.443 514.284 301.06C512.641 310.677 509.59 323.578 507.712 328.035C507.712 328.035 509.942 326.041 514.871 308.449C518.744 294.727 516.749 289.684 524.025 282.53Z" fill="#C1C1C1"/>
<path d="M402.32 241.599C402.32 248.049 407.601 253.327 414.056 253.327H445.509C451.964 253.327 457.246 248.049 457.246 241.599V220.723C457.246 214.272 451.964 208.995 445.509 208.995H414.056C407.601 208.995 402.32 214.272 402.32 220.723V241.599Z" fill="white"/>
<path d="M0 109.658C0 116.109 5.28133 121.386 11.7363 121.386H43.1896C49.6445 121.386 54.9258 116.109 54.9258 109.658V88.7823C54.9258 82.3318 49.6445 77.0542 43.1896 77.0542H11.7363C5.28133 77.0542 0 82.3318 0 88.7823V109.658Z" fill="white"/>
<path d="M426.262 252.506L429.314 260.95L432.482 251.802L426.262 252.506Z" fill="white"/>
<g opacity="0.5" filter="url(#filter2_f)">
<path d="M42.0156 343.985C42.0156 347.972 60.911 351.256 84.2662 351.256C107.621 351.256 126.517 347.972 126.517 343.985C126.517 339.997 107.621 336.713 84.2662 336.713C60.911 336.713 42.0156 339.997 42.0156 343.985Z" fill="#6D6D6D"/>
</g>
<path d="M74.5253 120.682L80.8629 124.904L85.7922 125.022L88.7262 117.75L93.186 119.979L96.2375 153.052C96.2375 153.052 110.908 196.68 104.218 200.668C97.5284 204.772 72.8823 205.359 69.1266 201.606C65.371 197.853 74.5253 120.682 74.5253 120.682Z" fill="#101E35"/>
<path d="M69.9483 330.849C69.9483 332.96 70.6524 335.892 71.474 337.534C73.1171 340.818 72.6476 343.281 71.5913 344.219C69.9482 345.744 57.0383 345.509 55.8647 344.219C54.9258 343.164 53.8695 340.701 55.5126 337.417C56.3342 335.658 57.0383 333.077 57.0383 331.201" fill="#101E35"/>
<path d="M89.5478 332.022C89.5478 332.022 89.7826 333.312 89.5478 334.72C89.4305 335.189 89.4305 337.534 89.0784 339.763C89.0784 339.88 88.7263 340.114 88.7263 340.349C88.6089 340.935 88.6089 341.522 88.4916 341.991C88.2568 343.164 88.7263 343.985 89.5478 343.985C93.6555 344.219 105.627 344.806 108.209 344.806C111.377 344.806 114.311 344.571 114.898 343.398C115.25 342.695 115.133 341.874 115.133 340.818C115.133 339.763 112.199 337.417 108.091 336.127C104.922 335.189 103.983 331.201 103.983 331.905H89.5478V332.022Z" fill="#101E35"/>
<path d="M82.3884 225.648C80.98 239.253 70.1826 330.145 69.8305 331.553C69.5958 332.96 56.9206 332.726 56.8032 331.201C56.2164 305.868 58.681 229.401 59.5026 201.723C59.5026 201.723 85.9092 201.606 108.091 201.606C109.382 221.661 110.555 268.104 109.617 278.777C108.795 287.924 104.922 326.392 103.866 332.022C103.866 332.022 101.284 333.429 96.5893 333.547C91.7774 333.664 89.7822 333.312 88.2565 331.905C91.3079 306.22 88.7259 287.455 92.7163 271.271L85.7919 225.648H82.3884V225.648Z" fill="#101E35"/>
<path d="M88.4916 341.991C88.2568 343.164 88.7263 343.985 89.5478 343.985C93.6555 344.219 105.627 344.806 108.209 344.806C111.377 344.806 114.311 344.571 114.898 343.398C115.25 342.694 115.133 341.874 115.133 340.818C115.133 340.114 113.725 338.707 111.495 337.534C109.5 338.238 109.734 340.935 109.734 340.935C108.795 341.053 98.3501 340.818 94.0076 340.583C89.7826 340.349 88.961 340.114 88.961 339.762C88.961 339.88 88.6089 340.114 88.6089 340.349C88.6089 340.935 88.6089 341.522 88.4916 341.991Z" fill="#101E35"/>
<path d="M64.6669 336.948C61.2633 337.065 58.4466 339.176 57.6251 340.466C56.6862 341.639 54.5736 340.466 54.5736 339.88C54.2215 341.991 54.9257 343.633 55.6299 344.336C56.9209 345.626 69.7135 345.861 71.3565 344.336C72.1781 343.633 72.6475 342.108 72.1781 340.114C71.3565 338.238 68.1877 336.83 64.6669 336.948Z" fill="#101E35"/>
<path d="M59.3853 212.044C59.3853 212.044 74.7598 218.963 80.5106 212.865C86.3787 206.766 84.6183 188.001 84.6183 188.001H90.8385C90.8385 188.001 87.7871 208.408 90.3691 212.865C92.951 217.439 101.871 218.494 109.03 213.099L108.56 204.069L105.978 181.668L83.6794 182.958L71.0042 188.47L59.5026 208.525V212.044H59.3853Z" fill="#C1C1C1"/>
<path d="M53.5172 213.686C57.2728 216.97 56.2165 221.309 56.5686 224.241C56.8033 226.235 57.977 228.463 56.3339 227.76C53.2824 226.587 53.7519 221.544 53.7519 221.544C53.7519 221.544 52.813 222.013 52.5783 223.303C52.3435 225.531 54.9255 230.105 55.2776 232.216C55.6297 234.562 50.8178 232.568 48.8226 229.988C45.3018 225.531 45.3018 217.791 45.3018 216.97C45.3018 215.445 45.3018 210.988 45.3018 210.988L53.9866 205.359C53.9866 205.593 52.9303 213.217 53.5172 213.686Z" fill="#FFAF99"/>
<path d="M59.1507 126.194C54.3388 128.775 49.6443 137.571 48.5881 151.879C47.7665 162.903 44.1283 190.581 43.8936 205.593C43.8936 206.18 44.9498 207.235 44.9498 207.822C44.9498 211.34 44.9498 213.803 44.9498 214.624C45.1845 217.087 54.8083 213.92 54.8083 211.575C54.8083 210.871 54.9257 208.76 55.2777 205.828C55.3951 205.242 56.0993 204.89 56.0993 204.186C57.5076 189.76 61.7327 156.57 61.7327 156.57" fill="#B1B1B1"/>
<path d="M96.7071 101.448C96.355 103.677 94.7119 106.609 92.9514 105.67C91.6605 104.967 90.4868 103.794 90.7215 101.566C91.0736 99.3372 92.2473 98.2817 94.0077 97.8126C96.1202 97.4607 97.0591 99.2199 96.7071 101.448Z" fill="#E9B319"/>
<path d="M96.2376 98.6335C95.8855 98.1644 94.0077 97.9298 93.4209 99.6891L93.6556 98.0471C93.6556 98.0471 94.2424 97.8125 95.064 97.9298C95.8855 97.9298 96.2376 98.6335 96.2376 98.6335Z" fill="#FFAF99"/>
<path d="M67.8357 101.448C68.1878 103.677 69.8309 106.609 71.5913 105.67C72.8823 104.967 74.056 103.794 73.7039 101.566C73.3518 99.3372 72.1782 98.2817 70.4177 97.8126C68.5399 97.4607 67.601 99.2199 67.8357 101.448Z" fill="#E9B319"/>
<path d="M68.4224 98.6335C68.7745 98.1644 70.6523 97.9298 71.2391 99.6891L71.0043 98.0471C71.0043 98.0471 70.4175 97.8125 69.596 97.9298C68.6571 97.9298 68.4224 98.6335 68.4224 98.6335Z" fill="#FFAF99"/>
<path d="M74.9949 110.244C75.699 112.707 74.7601 120.213 74.5254 120.682C74.5254 120.682 75.4643 125.139 83.3276 125.139C88.0221 125.139 89.3131 122.793 89.5479 121.972C89.7826 121.151 87.9048 114.584 88.7263 110.596L74.9949 110.244Z" fill="#E9B319"/>
<path d="M75.1123 111.652C75.1123 111.652 75.2297 112.473 75.1123 113.997C75.1123 113.997 79.1027 118.689 82.0367 118.689C84.8534 118.689 88.609 114.349 88.609 114.349C88.609 114.349 88.4917 111.417 88.7264 110.244L75.1123 111.652Z" fill="#E9B319"/>
<path d="M93.6553 95.1151C93.6553 101.331 88.6087 106.374 82.3884 106.374C76.1682 106.374 71.1216 101.331 71.1216 95.1151C71.1216 86.7882 76.1682 82.6833 82.3884 82.6833C88.4913 82.8006 93.6553 86.9055 93.6553 95.1151Z" fill="#FFAF99"/>
<path d="M93.6556 95.1152C93.6556 101.097 93.6556 106.257 91.3083 109.541C89.9 111.535 86.3791 114.936 83.6798 115.757C82.9756 115.991 81.2151 115.874 80.511 115.639C77.929 114.701 74.6428 111.417 73.2345 109.541C70.8872 106.257 70.8872 101.214 70.8872 95.1152" fill="#FFAF99"/>
<path d="M88.7264 99.8062C88.7264 100.862 88.1396 101.683 87.318 101.683C86.4965 101.683 85.9097 100.862 85.9097 99.8062C85.9097 98.7507 86.4965 97.9297 87.318 97.9297C88.1396 98.047 88.7264 98.868 88.7264 99.8062Z" fill="black"/>
<path d="M78.7503 99.8062C78.7503 100.862 78.1635 101.683 77.342 101.683C76.6378 101.683 75.9336 100.862 75.9336 99.8062C75.9336 98.7507 76.5204 97.9297 77.342 97.9297C78.1635 98.047 78.7503 98.868 78.7503 99.8062Z" fill="black"/>
<path d="M85.9097 94.8806C86.3791 94.7633 86.7312 94.646 87.2007 94.646C87.6701 94.646 88.0222 94.646 88.4917 94.646C89.3132 94.7633 90.1347 94.9979 90.8389 95.467C91.0736 95.7016 91.191 96.0534 90.9563 96.4053C90.8389 96.5225 90.6042 96.6398 90.4868 96.6398C90.1347 96.6398 89.7827 96.5225 89.4306 96.5225L88.3743 96.4053L87.318 96.288C86.9659 96.288 86.6138 96.1707 86.2618 96.0534H86.1444C85.7923 95.9361 85.5576 95.5843 85.6749 95.3497C85.5576 95.1151 85.675 94.8806 85.9097 94.8806Z" fill="#0A1D35"/>
<path d="M78.3983 96.0534C78.0462 96.1707 77.6941 96.1707 77.3421 96.288L76.2858 96.4052L75.2295 96.5225C74.8774 96.5225 74.5253 96.6398 74.1732 96.6398C73.8212 96.6398 73.5864 96.4052 73.5864 96.0534C73.5864 95.8188 73.7038 95.7015 73.8211 95.5843C74.5253 95.1151 75.3469 94.8806 76.1684 94.7633C76.6379 94.7633 76.99 94.646 77.4594 94.7633C77.9289 94.7633 78.281 94.8806 78.7504 94.9979C79.1025 95.1151 79.2199 95.467 79.2199 95.8188C78.8678 95.8188 78.7504 96.0534 78.3983 96.0534Z" fill="#0A1D35"/>
<path d="M80.276 105.201C80.9802 104.849 83.5622 104.849 84.2663 105.201C84.8532 105.553 82.9753 106.022 82.2712 106.022C81.567 106.022 79.6892 105.553 80.276 105.201Z" fill="#E9B319"/>
<path d="M77.9288 140.972C77.342 138.509 74.1732 121.386 74.6427 119.392C72.4128 121.972 60.5591 124.201 57.7424 127.25L56.9209 140.854C60.7939 142.848 59.2681 189.291 58.3292 208.056C58.3292 208.174 71.0044 214.976 77.342 210.754C84.5011 205.828 80.0413 150.002 77.9288 140.972Z" fill="#B1B1B1"/>
<path d="M110.673 205.593C110.673 195.625 109.969 160.089 108.678 149.768L109.148 127.719C103.749 123.732 88.8438 117.75 88.8438 117.75C97.0592 127.367 90.9563 197.501 92.9515 208.525C94.0077 214.389 110.673 212.396 110.673 205.593Z" fill="#B1B1B1"/>
<path d="M105.157 148.595L114.077 166.422C114.077 166.422 107.152 170.878 99.7584 172.638C99.1716 172.755 98.35 174.162 97.7632 174.279C95.2986 174.866 93.1861 175.452 91.543 175.804C89.5478 176.273 91.7777 186.008 93.6555 185.773C94.2423 185.656 96.4722 185.304 99.5237 184.6C99.9931 184.483 101.049 185.421 101.636 185.304C109.852 183.545 127.691 176.273 128.747 171.23C129.686 167.008 112.434 129.596 109.147 127.602C106.8 126.194 105.157 148.595 105.157 148.595Z" fill="#B1B1B1"/>
<path d="M109.617 165.249L109.499 164.663L66.0751 169.002L57.625 184.952L102.223 180.495L109.617 165.249Z" fill="#C1C1C1"/>
<path d="M102.223 180.495L101.401 181.199L57.9769 185.538L57.6248 184.952L56.4512 154.342L101.049 149.885L102.223 180.495Z" fill="#EDEDED"/>
<path d="M101.401 181.199L99.8754 150.823L58.0942 155.046L99.5233 151.293L101.401 181.199Z" fill="white"/>
<path d="M109.499 164.663L102.34 178.502L109.147 165.014L102.223 165.484L109.499 164.663Z" fill="white"/>
<path d="M82.1534 168.415C82.5055 170.761 81.2145 173.107 79.2194 173.576C77.2242 174.045 75.3464 172.52 74.9943 170.175C74.6422 167.829 75.9332 165.483 77.9284 165.014C79.9236 164.545 81.8013 166.07 82.1534 168.415Z" fill="white"/>
<path d="M92.9514 185.421C92.9514 185.421 81.6846 185.89 80.3936 185.421C77.929 184.6 75.5817 181.199 76.5206 179.088C77.3422 177.329 86.1444 177.094 87.6701 179.205C88.4917 180.378 88.609 182.372 88.609 182.372L91.4257 182.137C91.4257 182.137 92.1299 184.366 92.9514 185.421Z" fill="#FFAF99"/>
<path d="M71.8258 100.745C71.8258 100.745 72.53 103.911 74.2904 104.849C76.0509 105.788 75.5814 107.781 76.2856 107.781C76.5203 107.781 76.755 107.078 77.3418 106.96C78.1634 106.609 79.337 106.609 80.7454 106.491C81.2148 106.491 81.6843 107.195 82.1537 107.195C82.5058 107.195 82.9752 106.491 83.3273 106.491C84.9704 106.609 86.6135 106.843 87.5524 107.312C88.2566 107.664 88.374 108.368 88.8434 108.25C90.017 107.899 89.5476 105.318 90.4865 104.615C91.4254 104.028 92.599 102.152 92.7164 100.51C92.7164 100.393 92.7164 100.393 92.7164 100.275L93.4205 100.51C93.4205 100.51 93.5379 109.541 89.3128 114.818C85.0878 120.096 82.9753 119.979 82.2711 119.979C81.5669 119.979 75.5814 118.219 72.8821 112.238C70.3001 106.491 70.8869 100.627 70.8869 100.627H71.8258V100.745Z" fill="black"/>
<path d="M78.1633 108.837C80.6279 109.423 84.3835 109.306 86.6134 109.071C86.8481 109.071 86.9655 109.071 86.6134 109.189C86.0266 109.423 84.1488 111.3 82.3883 111.3C80.6279 111.3 78.5154 109.189 78.0459 108.837C77.8112 108.837 77.9286 108.72 78.1633 108.837Z" fill="#E9B319"/>
<path d="M86.8485 109.072C86.9659 109.072 85.7922 109.775 85.3228 110.127C84.6186 110.362 80.1588 110.362 79.3373 110.01C77.4595 108.72 78.0463 108.837 78.0463 108.837C78.0463 108.837 83.445 109.306 86.8485 109.072Z" fill="white"/>
<path d="M82.2712 87.6091C80.6282 87.6091 79.3372 86.9054 77.5767 86.5536C74.5253 85.8499 73.1169 89.0165 73.1169 89.0165C71.3565 91.8312 71.7086 100.862 71.7086 101.331C71.7086 101.8 71.0044 101.917 71.0044 101.331C71.0044 101.331 70.0655 95.3497 69.7134 91.714C68.3051 76.3502 87.0831 80.3377 91.4256 75.1774C92.1297 74.3564 92.9513 74.591 93.3034 75.1774C95.6506 79.2822 96.5895 84.3253 96.0027 90.3066C95.5333 94.1769 93.5381 100.041 93.5381 101.214C93.5381 101.917 92.8339 101.8 92.8339 101.214C92.8339 100.275 93.4207 90.6584 91.3082 88.1955C87.9047 83.9734 83.9143 87.6091 82.2712 87.6091Z" fill="black"/>
<path d="M92.9515 185.421C92.9515 185.421 93.0689 185.89 93.7731 185.773C94.3599 185.656 99.6412 184.6 99.6412 184.6L101.754 185.304C101.754 185.304 109.852 182.841 110.439 182.606V184.131L101.754 187.415L99.4065 186.359C99.4065 186.359 94.4773 186.946 93.7731 186.946C93.1863 187.063 92.7168 186.125 92.7168 186.125V185.187L92.9515 185.421Z" fill="#C1C1C1"/>
<path d="M109.382 157.039L105.979 142.966C105.979 142.966 109.499 158.916 109.734 163.372L109.382 157.039Z" fill="#C1C1C1"/>
<path d="M38.6126 94.8805C36.6174 94.1768 31.6881 93.3558 29.5756 93.9422C32.0402 84.5598 27.3457 82.8006 27.2283 85.0289C26.8763 90.6584 24.6464 94.9977 22.7686 97.2261L23.0033 107.078C24.7637 107.547 30.0451 108.954 36.6174 107.899C38.6126 105.084 39.082 95.4669 38.6126 94.8805Z" fill="#006DC9"/>
<path d="M443.375 227.712C443.536 223.858 440.483 220.486 436.466 220.325C433.734 220.165 431.324 221.61 430.038 223.858C428.913 221.61 426.664 220.004 423.932 220.004C420.075 219.844 416.701 222.894 416.54 226.909C416.54 228.836 417.183 230.602 418.308 231.887L429.395 243.609L441.126 232.529C442.572 231.245 443.375 229.478 443.375 227.712Z" fill="#ED0000"/>
<g opacity="0.75">
<path d="M235.078 27.6792H215.83C213.835 27.6792 212.192 29.3211 212.192 31.3149V50.5489C212.192 52.5427 213.835 54.1846 215.83 54.1846H235.078C237.073 54.1846 238.716 52.5427 238.716 50.5489V31.3149C238.716 29.3211 237.073 27.6792 235.078 27.6792ZM236.486 50.4316C236.486 51.2526 235.782 51.839 235.078 51.839H215.83C215.009 51.839 214.422 51.1353 214.422 50.4316V31.1976C214.422 30.3767 215.126 29.7903 215.83 29.7903H235.078C235.899 29.7903 236.486 30.4939 236.486 31.1976V50.4316Z" fill="white"/>
<path d="M234.021 38.5862L225.688 43.9811H234.021V44.8021H224.397L223.341 45.5058H234.021V46.3267H221.933L220.877 47.0304L219.586 47.8514L218.529 48.5551H234.021V49.4933H216.886V48.5551L217.943 47.8514L219.351 47.0304L220.407 46.3267L221.698 45.5058L222.754 44.8021L224.163 43.9811L233.669 37.8825L234.021 37.6479V38.5862Z" fill="white"/>
<path d="M234.022 47.0305V47.8515H219.586L220.877 47.0305H234.022Z" fill="white"/>
<path d="M234.021 32.3704V33.074L233.904 33.1913L232.848 33.895L231.439 34.716L230.383 35.4196L229.092 36.2406L228.036 36.9443L226.627 37.8825L217.121 43.9811L216.886 44.0984V43.0428L225.102 37.8825H216.886V36.9443H226.393L227.449 36.2406H216.886V35.4196H228.857L229.914 34.716H216.886V33.895H231.205L232.261 33.1913H216.886V32.3704H234.021Z" fill="white"/>
<path d="M234.021 33.895V34.9505L233.317 35.4196L231.909 36.2406L230.852 36.9443L229.561 37.8825L220.055 43.9811L218.647 44.8021L217.59 45.5057L216.886 45.9749V44.9193L217.121 44.8021L218.412 43.9811L227.918 37.8825L229.327 36.9443L230.383 36.2406L231.674 35.4196L232.73 34.716L234.021 33.895Z" fill="white"/>
<path d="M234.021 35.7715V36.827L233.787 36.9443L232.378 37.8825L222.872 43.9811L221.581 44.8021L220.407 45.5058L219.116 46.3267L218.06 47.0304L216.886 47.7341V46.7959L217.473 46.3267L218.881 45.5058L219.938 44.8021L221.229 43.9811L230.852 37.8825L232.143 36.9443L233.2 36.2406L234.021 35.7715Z" fill="white"/>
</g>
<defs>
<filter id="filter0_f" x="183.507" y="309.559" width="318.15" height="62.5179" filterUnits="userSpaceOnUse" color-interpolation-filters="sRGB">
<feFlood flood-opacity="0" result="BackgroundImageFix"/>
<feBlend mode="normal" in="SourceGraphic" in2="BackgroundImageFix" result="shape"/>
<feGaussianBlur stdDeviation="10" result="effect1_foregroundBlur"/>
</filter>
<filter id="filter1_f" x="344.881" y="375.471" width="245.62" height="55.481" filterUnits="userSpaceOnUse" color-interpolation-filters="sRGB">
<feFlood flood-opacity="0" result="BackgroundImageFix"/>
<feBlend mode="normal" in="SourceGraphic" in2="BackgroundImageFix" result="shape"/>
<feGaussianBlur stdDeviation="10" result="effect1_foregroundBlur"/>
</filter>
<filter id="filter2_f" x="22.0156" y="316.713" width="124.501" height="54.5429" filterUnits="userSpaceOnUse" color-interpolation-filters="sRGB">
<feFlood flood-opacity="0" result="BackgroundImageFix"/>
<feBlend mode="normal" in="SourceGraphic" in2="BackgroundImageFix" result="shape"/>
<feGaussianBlur stdDeviation="10" result="effect1_foregroundBlur"/>
</filter>
<clipPath id="clip0">
<rect width="81" height="80" fill="white" transform="translate(478.41 0.0478516)"/>
</clipPath>
</defs>
</svg>
