<svg width="28" height="29" viewBox="0 0 28 29" fill="none" xmlns="http://www.w3.org/2000/svg">
<g clip-path="url(#clip0)">
<path d="M3.12465 0.989274C3.26178 0.907923 3.41715 0.865441 3.57513 0.866096C3.73312 0.866752 3.88815 0.910522 4.02465 0.993007L18.1421 9.53301L13.7735 13.6098L2.67285 3.24981V1.79941C2.67272 1.63508 2.71443 1.47363 2.79376 1.33137C2.8731 1.18912 2.98724 1.07111 3.12465 0.989274Z" fill="white"/>
<path d="M2.67285 5.76245V23.9699L12.4289 14.8662L2.67285 5.76245Z" fill="white"/>
<path d="M2.67285 26.4823V27.9327C2.6728 28.0969 2.71454 28.2583 2.79385 28.4004C2.87316 28.5426 2.98723 28.6605 3.12454 28.7423C3.26185 28.8241 3.41755 28.8669 3.57591 28.8663C3.73426 28.8658 3.88968 28.8219 4.02645 28.7391L18.1421 20.1991L13.7735 16.1223L2.67285 26.4823Z" fill="white"/>
<path d="M19.7748 19.2117L25.6248 15.6725C25.7607 15.5903 25.8735 15.4726 25.952 15.3311C26.0304 15.1896 26.0716 15.0293 26.0716 14.8661C26.0716 14.7029 26.0304 14.5426 25.952 14.4011C25.8735 14.2596 25.7607 14.1419 25.6248 14.0597L19.7748 10.5205L15.1182 14.8661L19.7748 19.2117Z" fill="white"/>
</g>
<defs>
<clipPath id="clip0">
<rect width="27" height="28" fill="white" transform="translate(0.872803 0.866089)"/>
</clipPath>
</defs>
</svg>
