<svg width="56" height="57" viewBox="0 0 56 57" fill="none" xmlns="http://www.w3.org/2000/svg">
<path d="M48.4181 22.9913L28.416 35.6686H48.4181V37.9224H25.3171L22.7816 39.6127H48.4181V41.5847H19.6827L16.8656 43.275L13.7666 45.2471L11.2312 46.9374H48.4181V48.9094H7.28711V46.9374L10.1043 45.2471L13.2032 43.275L15.7387 41.5847L18.8376 39.6127L21.3731 37.9224L24.7537 35.6686L47.5729 21.0192L48.4181 20.4558V22.9913Z" fill="#E9B319"/>
<path d="M48.4183 43.2754V45.2474H13.7668L16.8658 43.2754H48.4183Z" fill="#E9B319"/>
<path d="M48.4181 7.77856V9.7506L48.1363 10.0323L45.6009 11.4409L42.502 13.6947L39.9665 15.385L36.5859 17.357L34.0504 19.0473L30.9515 21.0194L7.85055 35.6687L7.28711 36.2322V33.6967L27.0074 21.0194H7.28711V19.0473H30.1063L32.9235 17.357H7.28711V15.385H36.0224L38.5579 13.6947H7.28711V11.4409H41.6568L44.474 10.0323H7.28711V7.77856H48.4181Z" fill="#E9B319"/>
<path d="M48.4181 11.7222V14.2576L46.7278 15.3845L43.3471 17.3565L40.8117 19.0469L37.7127 21.0189L14.8935 35.6683L11.5129 37.922L8.97742 39.6123L7.28711 40.4575V38.2037L7.85055 37.922L10.9495 35.6683L33.7687 21.0189L37.1493 19.0469L39.6848 17.3565L42.7837 15.3845L45.3192 13.6942L48.4181 11.7222Z" fill="#E9B319"/>
<path d="M48.4181 16.2302V18.484L47.8546 19.0474L44.474 21.0194L21.6548 35.6688L18.5559 37.9226L16.0204 39.6129L12.6398 41.5849L10.1043 43.2752L7.28711 44.9656V42.4301L8.97742 41.5849L12.0763 39.6129L14.6118 37.9226L17.9924 35.6688L40.8117 21.0194L43.9106 19.0474L46.446 17.3571L48.4181 16.2302Z" fill="#E9B319"/>
<path d="M7.19672 55.9915H48.5082C52.3091 55.9915 55.5129 52.8271 55.2049 48.9793V7.68818C55.2049 4.18171 52.3407 0.991455 48.5082 0.991455H7.19672C3.65983 0.991455 0.5 4.18121 0.5 7.98326V49.2947C0.5 52.8012 3.36427 55.9915 7.19672 55.9915ZM2.09016 7.98326C2.09016 5.30858 4.52204 2.8767 7.19672 2.8767H48.5082C51.1829 2.8767 53.6148 5.30858 53.6148 7.98326V49.2947C53.6148 51.9694 51.1829 54.4013 48.5082 54.4013H7.19672C4.52204 54.4013 2.09016 51.9694 2.09016 49.2947V7.98326Z" fill="#006DC9" stroke="#006DC9"/>
</svg>
