<svg width="407" height="631" viewBox="0 0 407 831" fill="none" xmlns="http://www.w3.org/2000/svg">
<g clip-path="url(#clip0)">
<rect width="406.34" height="830.16" rx="50" fill="white"/>
<circle cx="203.17" cy="224.199" r="307.715" fill="url(#paint0_linear)"/>
<path d="M238.656 237.41L203.738 259.541H238.656V263.476H198.328L193.902 266.426H238.656V269.869H188.492L183.574 272.82L178.164 276.263L173.738 279.213H238.656V282.656H166.853V279.213L171.771 276.263L177.181 272.82L181.607 269.869L187.017 266.426L191.443 263.476L197.344 259.541L237.181 233.967L238.656 232.984V237.41Z" fill="white"/>
<path d="M238.656 272.82V276.263H178.164L183.574 272.82H238.656Z" fill="white"/>
<path d="M238.656 210.853V214.295L238.164 214.787L233.738 217.246L228.328 221.181L223.902 224.131L218 227.574L213.574 230.525L208.164 233.967L167.836 259.541L166.853 260.525V256.099L201.279 233.967H166.853V230.525H206.689L211.607 227.574H166.853V224.131H217.017L221.443 221.181H166.853V217.246H226.853L231.771 214.787H166.853V210.853H238.656Z" fill="white"/>
<path d="M238.656 217.738V222.164L235.705 224.131L229.803 227.574L225.377 230.524L219.967 233.967L180.131 259.541L174.23 263.475L169.803 266.426L166.853 267.901V263.967L167.836 263.475L173.246 259.541L213.082 233.967L218.984 230.524L223.41 227.574L228.82 224.131L233.246 221.18L238.656 217.738Z" fill="white"/>
<path d="M238.656 225.607V229.541L237.672 230.525L231.771 233.967L191.935 259.541L186.525 263.476L182.099 266.426L176.197 269.869L171.771 272.82L166.853 275.771V271.344L169.803 269.869L175.213 266.426L179.64 263.476L185.541 259.541L225.377 233.967L230.787 230.525L235.213 227.574L238.656 225.607Z" fill="white"/>
<path d="M237.18 292H168.328C162.426 292 158 287.082 158 281.672V212.82C158 206.918 162.918 202 168.328 202H237.18C243.082 202 247.508 206.918 247.508 212.328V281.18C248 287.082 243.082 292 237.18 292ZM168.328 203.475C163.41 203.475 158.984 207.902 158.984 212.82V281.672C158.984 286.59 163.41 291.016 168.328 291.016H237.18C242.098 291.016 246.525 286.59 246.525 281.672V212.82C246.525 207.902 242.098 203.475 237.18 203.475H168.328V203.475Z" fill="white"/>
<path d="M136.527 330.496C136.41 330.496 136.3 330.452 136.197 330.364C136.109 330.276 136.065 330.166 136.065 330.034L136.109 329.836L141.411 315.646C141.514 315.279 141.77 315.096 142.181 315.096H144.579C144.96 315.096 145.217 315.279 145.349 315.646L150.651 329.836C150.666 329.88 150.673 329.946 150.673 330.034C150.673 330.166 150.629 330.276 150.541 330.364C150.453 330.452 150.35 330.496 150.233 330.496H148.319C148.128 330.496 147.982 330.452 147.879 330.364C147.776 330.276 147.71 330.181 147.681 330.078L146.647 327.394H140.113L139.079 330.078C138.962 330.357 138.749 330.496 138.441 330.496H136.527ZM145.877 324.864L143.369 318.066L140.883 324.864H145.877ZM152.991 330.496C152.844 330.496 152.719 330.445 152.617 330.342C152.514 330.239 152.463 330.115 152.463 329.968V319.606C152.463 319.459 152.514 319.335 152.617 319.232C152.719 319.115 152.844 319.056 152.991 319.056H154.773C154.934 319.056 155.066 319.107 155.169 319.21C155.271 319.313 155.323 319.445 155.323 319.606V320.508C155.675 320.039 156.115 319.679 156.643 319.43C157.185 319.181 157.801 319.056 158.491 319.056H159.393C159.554 319.056 159.679 319.107 159.767 319.21C159.869 319.298 159.921 319.423 159.921 319.584V321.168C159.921 321.315 159.869 321.439 159.767 321.542C159.679 321.645 159.554 321.696 159.393 321.696H157.677C156.987 321.696 156.445 321.894 156.049 322.29C155.653 322.686 155.455 323.229 155.455 323.918V329.968C155.455 330.115 155.403 330.239 155.301 330.342C155.198 330.445 155.066 330.496 154.905 330.496H152.991ZM166.436 330.716C164.823 330.716 163.532 330.269 162.564 329.374C161.611 328.479 161.105 327.24 161.046 325.656L161.024 324.776L161.046 323.896C161.105 322.312 161.611 321.073 162.564 320.178C163.532 319.283 164.823 318.836 166.436 318.836C167.58 318.836 168.548 319.041 169.34 319.452C170.147 319.863 170.741 320.369 171.122 320.97C171.518 321.557 171.731 322.114 171.76 322.642C171.775 322.789 171.724 322.913 171.606 323.016C171.504 323.119 171.379 323.17 171.232 323.17H169.296C169.15 323.17 169.032 323.141 168.944 323.082C168.871 323.009 168.798 322.891 168.724 322.73C168.504 322.158 168.211 321.747 167.844 321.498C167.492 321.249 167.038 321.124 166.48 321.124C165.732 321.124 165.146 321.366 164.72 321.85C164.295 322.319 164.068 323.038 164.038 324.006L164.016 324.82L164.038 325.546C164.097 327.467 164.911 328.428 166.48 328.428C167.052 328.428 167.514 328.303 167.866 328.054C168.218 327.805 168.504 327.394 168.724 326.822C168.798 326.661 168.871 326.551 168.944 326.492C169.032 326.419 169.15 326.382 169.296 326.382H171.232C171.379 326.382 171.504 326.433 171.606 326.536C171.724 326.639 171.775 326.763 171.76 326.91C171.731 327.423 171.526 327.973 171.144 328.56C170.763 329.147 170.176 329.653 169.384 330.078C168.592 330.503 167.61 330.716 166.436 330.716ZM177.377 330.716C176.629 330.716 175.939 330.569 175.309 330.276C174.693 329.968 174.201 329.557 173.835 329.044C173.483 328.531 173.307 327.966 173.307 327.35C173.307 326.353 173.71 325.546 174.517 324.93C175.323 324.314 176.431 323.896 177.839 323.676L180.853 323.236V322.774C180.853 322.129 180.691 321.645 180.369 321.322C180.046 320.999 179.525 320.838 178.807 320.838C178.323 320.838 177.927 320.933 177.619 321.124C177.325 321.3 177.091 321.476 176.915 321.652C176.739 321.843 176.621 321.967 176.563 322.026C176.504 322.202 176.394 322.29 176.233 322.29H174.539C174.407 322.29 174.289 322.246 174.187 322.158C174.099 322.07 174.055 321.953 174.055 321.806C174.069 321.439 174.245 321.021 174.583 320.552C174.935 320.083 175.47 319.679 176.189 319.342C176.907 319.005 177.787 318.836 178.829 318.836C180.559 318.836 181.821 319.225 182.613 320.002C183.405 320.779 183.801 321.799 183.801 323.06V329.968C183.801 330.115 183.749 330.239 183.647 330.342C183.559 330.445 183.434 330.496 183.273 330.496H181.491C181.344 330.496 181.219 330.445 181.117 330.342C181.014 330.239 180.963 330.115 180.963 329.968V329.11C180.64 329.579 180.178 329.968 179.577 330.276C178.99 330.569 178.257 330.716 177.377 330.716ZM178.125 328.626C178.931 328.626 179.591 328.362 180.105 327.834C180.618 327.306 180.875 326.536 180.875 325.524V325.062L178.675 325.414C177.824 325.546 177.179 325.759 176.739 326.052C176.313 326.345 176.101 326.705 176.101 327.13C176.101 327.599 176.299 327.966 176.695 328.23C177.091 328.494 177.567 328.626 178.125 328.626ZM187.151 330.496C187.004 330.496 186.88 330.445 186.777 330.342C186.674 330.239 186.623 330.115 186.623 329.968V319.584C186.623 319.437 186.674 319.313 186.777 319.21C186.88 319.107 187.004 319.056 187.151 319.056H188.955C189.102 319.056 189.226 319.107 189.329 319.21C189.432 319.313 189.483 319.437 189.483 319.584V320.486C190.348 319.386 191.573 318.836 193.157 318.836C194.506 318.836 195.577 319.283 196.369 320.178C197.161 321.058 197.557 322.261 197.557 323.786V329.968C197.557 330.115 197.506 330.239 197.403 330.342C197.315 330.445 197.19 330.496 197.029 330.496H195.093C194.946 330.496 194.822 330.445 194.719 330.342C194.616 330.239 194.565 330.115 194.565 329.968V323.918C194.565 323.053 194.352 322.385 193.927 321.916C193.516 321.432 192.915 321.19 192.123 321.19C191.346 321.19 190.73 321.432 190.275 321.916C189.835 322.4 189.615 323.067 189.615 323.918V329.968C189.615 330.115 189.564 330.239 189.461 330.342C189.373 330.445 189.248 330.496 189.087 330.496H187.151ZM205.279 330.716C203.651 330.716 202.353 330.247 201.385 329.308C200.432 328.355 199.926 327.02 199.867 325.304L199.845 324.754L199.867 324.204C199.941 322.532 200.454 321.219 201.407 320.266C202.375 319.313 203.666 318.836 205.279 318.836C207.01 318.836 208.345 319.364 209.283 320.42C210.237 321.476 210.713 322.884 210.713 324.644V325.106C210.713 325.253 210.662 325.377 210.559 325.48C210.457 325.583 210.325 325.634 210.163 325.634H202.859V325.81C202.889 326.617 203.109 327.299 203.519 327.856C203.945 328.399 204.524 328.67 205.257 328.67C206.123 328.67 206.819 328.333 207.347 327.658C207.479 327.497 207.582 327.394 207.655 327.35C207.743 327.306 207.868 327.284 208.029 327.284H209.921C210.053 327.284 210.163 327.328 210.251 327.416C210.354 327.489 210.405 327.585 210.405 327.702C210.405 328.054 210.193 328.472 209.767 328.956C209.357 329.425 208.763 329.836 207.985 330.188C207.208 330.54 206.306 330.716 205.279 330.716ZM207.721 323.786V323.72C207.721 322.855 207.501 322.158 207.061 321.63C206.636 321.102 206.042 320.838 205.279 320.838C204.517 320.838 203.923 321.102 203.497 321.63C203.072 322.158 202.859 322.855 202.859 323.72V323.786H207.721ZM218.01 330.496C217.849 330.496 217.717 330.445 217.614 330.342C217.526 330.239 217.482 330.107 217.482 329.946V328.406C217.482 328.157 217.533 327.966 217.636 327.834C217.739 327.687 217.797 327.607 217.812 327.592L225.468 317.692H218.23C218.083 317.692 217.959 317.641 217.856 317.538C217.753 317.435 217.702 317.311 217.702 317.164V315.646C217.702 315.485 217.746 315.353 217.834 315.25C217.937 315.147 218.069 315.096 218.23 315.096H228.746C228.907 315.096 229.039 315.147 229.142 315.25C229.245 315.353 229.296 315.485 229.296 315.646V317.164C229.296 317.428 229.201 317.685 229.01 317.934L221.508 327.878H228.988C229.149 327.878 229.281 327.929 229.384 328.032C229.487 328.135 229.538 328.267 229.538 328.428V329.968C229.538 330.129 229.487 330.261 229.384 330.364C229.281 330.452 229.149 330.496 228.988 330.496H218.01ZM236.65 330.716C234.934 330.716 233.606 330.276 232.668 329.396C231.729 328.501 231.223 327.284 231.15 325.744L231.128 324.776L231.15 323.808C231.223 322.283 231.736 321.073 232.69 320.178C233.643 319.283 234.963 318.836 236.65 318.836C238.336 318.836 239.656 319.283 240.61 320.178C241.563 321.073 242.076 322.283 242.15 323.808C242.164 323.984 242.172 324.307 242.172 324.776C242.172 325.245 242.164 325.568 242.15 325.744C242.076 327.284 241.57 328.501 240.632 329.396C239.693 330.276 238.366 330.716 236.65 330.716ZM236.65 328.538C237.427 328.538 238.028 328.296 238.454 327.812C238.879 327.313 239.114 326.587 239.158 325.634C239.172 325.487 239.18 325.201 239.18 324.776C239.18 324.351 239.172 324.065 239.158 323.918C239.114 322.965 238.879 322.246 238.454 321.762C238.028 321.263 237.427 321.014 236.65 321.014C235.872 321.014 235.271 321.263 234.846 321.762C234.42 322.246 234.186 322.965 234.142 323.918L234.12 324.776L234.142 325.634C234.186 326.587 234.42 327.313 234.846 327.812C235.271 328.296 235.872 328.538 236.65 328.538ZM245.137 330.496C244.991 330.496 244.866 330.445 244.763 330.342C244.661 330.239 244.609 330.115 244.609 329.968V319.584C244.609 319.437 244.661 319.313 244.763 319.21C244.866 319.107 244.991 319.056 245.137 319.056H246.941C247.088 319.056 247.213 319.107 247.315 319.21C247.418 319.313 247.469 319.437 247.469 319.584V320.486C248.335 319.386 249.559 318.836 251.143 318.836C252.493 318.836 253.563 319.283 254.355 320.178C255.147 321.058 255.543 322.261 255.543 323.786V329.968C255.543 330.115 255.492 330.239 255.389 330.342C255.301 330.445 255.177 330.496 255.015 330.496H253.079C252.933 330.496 252.808 330.445 252.705 330.342C252.603 330.239 252.551 330.115 252.551 329.968V323.918C252.551 323.053 252.339 322.385 251.913 321.916C251.503 321.432 250.901 321.19 250.109 321.19C249.332 321.19 248.716 321.432 248.261 321.916C247.821 322.4 247.601 323.067 247.601 323.918V329.968C247.601 330.115 247.55 330.239 247.447 330.342C247.359 330.445 247.235 330.496 247.073 330.496H245.137ZM263.266 330.716C261.638 330.716 260.34 330.247 259.372 329.308C258.418 328.355 257.912 327.02 257.854 325.304L257.832 324.754L257.854 324.204C257.927 322.532 258.44 321.219 259.394 320.266C260.362 319.313 261.652 318.836 263.266 318.836C264.996 318.836 266.331 319.364 267.27 320.42C268.223 321.476 268.7 322.884 268.7 324.644V325.106C268.7 325.253 268.648 325.377 268.546 325.48C268.443 325.583 268.311 325.634 268.15 325.634H260.846V325.81C260.875 326.617 261.095 327.299 261.506 327.856C261.931 328.399 262.51 328.67 263.244 328.67C264.109 328.67 264.806 328.333 265.334 327.658C265.466 327.497 265.568 327.394 265.642 327.35C265.73 327.306 265.854 327.284 266.016 327.284H267.908C268.04 327.284 268.15 327.328 268.238 327.416C268.34 327.489 268.392 327.585 268.392 327.702C268.392 328.054 268.179 328.472 267.754 328.956C267.343 329.425 266.749 329.836 265.972 330.188C265.194 330.54 264.292 330.716 263.266 330.716ZM265.708 323.786V323.72C265.708 322.855 265.488 322.158 265.048 321.63C264.622 321.102 264.028 320.838 263.266 320.838C262.503 320.838 261.909 321.102 261.484 321.63C261.058 322.158 260.846 322.855 260.846 323.72V323.786H265.708Z" fill="white"/>
<path d="M111.024 359.793C110.917 359.793 110.826 359.761 110.752 359.697C110.688 359.623 110.656 359.532 110.656 359.425V348.977C110.656 348.86 110.688 348.769 110.752 348.705C110.826 348.631 110.917 348.593 111.024 348.593H111.824C111.994 348.593 112.133 348.679 112.24 348.849L115.616 355.313L119.024 348.849C119.045 348.785 119.088 348.727 119.152 348.673C119.226 348.62 119.317 348.593 119.424 348.593H120.208C120.325 348.593 120.416 348.631 120.48 348.705C120.554 348.769 120.592 348.86 120.592 348.977V359.425C120.592 359.532 120.554 359.623 120.48 359.697C120.405 359.761 120.314 359.793 120.208 359.793H119.424C119.317 359.793 119.226 359.761 119.152 359.697C119.088 359.623 119.056 359.532 119.056 359.425V351.553L116.384 356.769C116.277 356.993 116.106 357.105 115.872 357.105H115.376C115.141 357.105 114.97 356.993 114.864 356.769L112.176 351.553V359.425C112.176 359.532 112.138 359.623 112.064 359.697C112 359.761 111.914 359.793 111.808 359.793H111.024ZM125.471 359.953C124.948 359.953 124.463 359.847 124.015 359.633C123.567 359.42 123.209 359.132 122.943 358.769C122.687 358.396 122.559 357.985 122.559 357.537C122.559 356.833 122.847 356.257 123.423 355.809C124.009 355.351 124.799 355.052 125.791 354.913L128.175 354.577V354.113C128.175 353.025 127.551 352.481 126.303 352.481C125.833 352.481 125.449 352.583 125.151 352.785C124.852 352.977 124.628 353.207 124.479 353.473C124.447 353.569 124.404 353.639 124.351 353.681C124.308 353.724 124.244 353.745 124.159 353.745H123.471C123.375 353.745 123.289 353.713 123.215 353.649C123.151 353.575 123.119 353.489 123.119 353.393C123.129 353.137 123.247 352.849 123.471 352.529C123.705 352.199 124.063 351.916 124.543 351.681C125.023 351.436 125.615 351.313 126.319 351.313C127.513 351.313 128.372 351.596 128.895 352.161C129.417 352.716 129.679 353.409 129.679 354.241V359.425C129.679 359.532 129.641 359.623 129.567 359.697C129.503 359.761 129.417 359.793 129.311 359.793H128.575C128.468 359.793 128.377 359.761 128.303 359.697C128.239 359.623 128.207 359.532 128.207 359.425V358.737C127.972 359.079 127.631 359.367 127.183 359.601C126.735 359.836 126.164 359.953 125.471 359.953ZM125.807 358.753C126.5 358.753 127.065 358.529 127.503 358.081C127.951 357.623 128.175 356.967 128.175 356.113V355.665L126.319 355.937C125.561 356.044 124.991 356.225 124.607 356.481C124.223 356.727 124.031 357.041 124.031 357.425C124.031 357.852 124.207 358.183 124.559 358.417C124.911 358.641 125.327 358.753 125.807 358.753ZM132.363 359.793C132.256 359.793 132.166 359.761 132.091 359.697C132.027 359.623 131.995 359.532 131.995 359.425V348.801C131.995 348.695 132.027 348.609 132.091 348.545C132.166 348.471 132.256 348.433 132.363 348.433H133.115C133.222 348.433 133.307 348.471 133.371 348.545C133.446 348.609 133.483 348.695 133.483 348.801V354.369L136.635 351.745C136.667 351.724 136.72 351.681 136.795 351.617C136.87 351.564 136.939 351.527 137.003 351.505C137.078 351.484 137.168 351.473 137.275 351.473H138.123C138.219 351.473 138.299 351.505 138.363 351.569C138.427 351.633 138.459 351.713 138.459 351.809C138.459 351.927 138.395 352.028 138.267 352.113L134.571 355.185L138.667 359.169C138.795 359.276 138.859 359.372 138.859 359.457C138.859 359.553 138.827 359.633 138.763 359.697C138.699 359.761 138.619 359.793 138.523 359.793H137.691C137.531 359.793 137.414 359.777 137.339 359.745C137.275 359.713 137.179 359.639 137.051 359.521L133.483 356.113V359.425C133.483 359.532 133.446 359.623 133.371 359.697C133.307 359.761 133.222 359.793 133.115 359.793H132.363ZM140.469 349.921C140.362 349.921 140.272 349.889 140.197 349.825C140.133 349.751 140.101 349.66 140.101 349.553V348.689C140.101 348.583 140.133 348.492 140.197 348.417C140.272 348.343 140.362 348.305 140.469 348.305H141.477C141.584 348.305 141.674 348.343 141.749 348.417C141.824 348.492 141.861 348.583 141.861 348.689V349.553C141.861 349.66 141.824 349.751 141.749 349.825C141.674 349.889 141.584 349.921 141.477 349.921H140.469ZM140.597 359.793C140.49 359.793 140.4 359.761 140.325 359.697C140.261 359.623 140.229 359.532 140.229 359.425V351.841C140.229 351.735 140.261 351.649 140.325 351.585C140.4 351.511 140.49 351.473 140.597 351.473H141.365C141.472 351.473 141.557 351.511 141.621 351.585C141.696 351.649 141.733 351.735 141.733 351.841V359.425C141.733 359.532 141.696 359.623 141.621 359.697C141.557 359.761 141.472 359.793 141.365 359.793H140.597ZM144.472 359.793C144.365 359.793 144.275 359.761 144.2 359.697C144.136 359.623 144.104 359.532 144.104 359.425V351.841C144.104 351.735 144.136 351.649 144.2 351.585C144.275 351.511 144.365 351.473 144.472 351.473H145.224C145.331 351.473 145.416 351.511 145.48 351.585C145.555 351.649 145.592 351.735 145.592 351.841V352.545C145.901 352.151 146.264 351.847 146.68 351.633C147.107 351.42 147.635 351.313 148.264 351.313C149.288 351.313 150.083 351.644 150.648 352.305C151.224 352.956 151.512 353.825 151.512 354.913V359.425C151.512 359.532 151.475 359.623 151.4 359.697C151.336 359.761 151.251 359.793 151.144 359.793H150.344C150.237 359.793 150.147 359.761 150.072 359.697C150.008 359.623 149.976 359.532 149.976 359.425V354.993C149.976 354.236 149.789 353.649 149.416 353.233C149.053 352.817 148.525 352.609 147.832 352.609C147.16 352.609 146.627 352.823 146.232 353.249C145.837 353.665 145.64 354.247 145.64 354.993V359.425C145.64 359.532 145.603 359.623 145.528 359.697C145.464 359.761 145.379 359.793 145.272 359.793H144.472ZM154.175 359.793C154.068 359.793 153.978 359.761 153.903 359.697C153.839 359.623 153.807 359.532 153.807 359.425V351.841C153.807 351.735 153.839 351.649 153.903 351.585C153.978 351.511 154.068 351.473 154.175 351.473H154.927C155.034 351.473 155.119 351.511 155.183 351.585C155.258 351.649 155.295 351.735 155.295 351.841V352.545C155.604 352.151 155.967 351.847 156.383 351.633C156.81 351.42 157.338 351.313 157.967 351.313C158.991 351.313 159.786 351.644 160.351 352.305C160.927 352.956 161.215 353.825 161.215 354.913V359.425C161.215 359.532 161.178 359.623 161.103 359.697C161.039 359.761 160.954 359.793 160.847 359.793H160.047C159.94 359.793 159.85 359.761 159.775 359.697C159.711 359.623 159.679 359.532 159.679 359.425V354.993C159.679 354.236 159.492 353.649 159.119 353.233C158.756 352.817 158.228 352.609 157.535 352.609C156.863 352.609 156.33 352.823 155.935 353.249C155.54 353.665 155.343 354.247 155.343 354.993V359.425C155.343 359.532 155.306 359.623 155.231 359.697C155.167 359.761 155.082 359.793 154.975 359.793H154.175ZM166.918 363.313C166.044 363.313 165.34 363.164 164.806 362.865C164.273 362.577 163.894 362.247 163.67 361.873C163.446 361.5 163.324 361.164 163.302 360.865C163.292 360.759 163.324 360.668 163.398 360.593C163.484 360.519 163.574 360.481 163.67 360.481H164.438C164.534 360.481 164.614 360.503 164.678 360.545C164.742 360.599 164.796 360.689 164.838 360.817C164.966 361.159 165.174 361.452 165.462 361.697C165.761 361.953 166.22 362.081 166.838 362.081C167.628 362.081 168.209 361.911 168.582 361.569C168.956 361.239 169.142 360.647 169.142 359.793V358.705C168.865 359.057 168.513 359.34 168.086 359.553C167.66 359.756 167.153 359.857 166.566 359.857C165.436 359.857 164.588 359.5 164.022 358.785C163.468 358.06 163.174 357.143 163.142 356.033L163.126 355.585L163.142 355.153C163.174 354.055 163.473 353.143 164.038 352.417C164.604 351.681 165.446 351.313 166.566 351.313C167.686 351.313 168.561 351.724 169.19 352.545V351.857C169.19 351.751 169.222 351.66 169.286 351.585C169.361 351.511 169.452 351.473 169.558 351.473H170.294C170.401 351.473 170.492 351.511 170.566 351.585C170.641 351.66 170.678 351.751 170.678 351.857V359.617C170.678 362.081 169.425 363.313 166.918 363.313ZM166.886 358.577C167.612 358.577 168.161 358.337 168.534 357.857C168.908 357.377 169.11 356.807 169.142 356.145C169.153 356.049 169.158 355.863 169.158 355.585C169.158 355.319 169.153 355.137 169.142 355.041C169.11 354.38 168.908 353.809 168.534 353.329C168.172 352.849 167.622 352.609 166.886 352.609C166.129 352.609 165.58 352.844 165.238 353.313C164.897 353.783 164.71 354.401 164.678 355.169L164.662 355.585L164.678 356.017C164.71 356.775 164.897 357.393 165.238 357.873C165.58 358.343 166.129 358.577 166.886 358.577ZM177.555 359.793C177.448 359.793 177.358 359.761 177.283 359.697C177.219 359.623 177.187 359.532 177.187 359.425V348.977C177.187 348.86 177.219 348.769 177.283 348.705C177.358 348.631 177.448 348.593 177.555 348.593H181.619C182.824 348.593 183.774 348.887 184.467 349.473C185.16 350.06 185.507 350.908 185.507 352.017C185.507 353.127 185.16 353.975 184.467 354.561C183.784 355.137 182.835 355.425 181.619 355.425H178.787V359.425C178.787 359.532 178.75 359.623 178.675 359.697C178.6 359.761 178.51 359.793 178.403 359.793H177.555ZM181.539 354.081C182.318 354.081 182.904 353.905 183.299 353.553C183.704 353.201 183.907 352.689 183.907 352.017C183.907 351.345 183.71 350.833 183.315 350.481C182.92 350.119 182.328 349.937 181.539 349.937H178.771V354.081H181.539ZM187.613 359.793C187.506 359.793 187.415 359.761 187.341 359.697C187.277 359.623 187.245 359.532 187.245 359.425V351.857C187.245 351.751 187.277 351.66 187.341 351.585C187.415 351.511 187.506 351.473 187.613 351.473H188.349C188.455 351.473 188.546 351.511 188.621 351.585C188.695 351.66 188.733 351.751 188.733 351.857V352.561C189.17 351.836 189.917 351.473 190.973 351.473H191.597C191.703 351.473 191.789 351.511 191.853 351.585C191.927 351.649 191.965 351.735 191.965 351.841V352.497C191.965 352.604 191.927 352.689 191.853 352.753C191.789 352.817 191.703 352.849 191.597 352.849H190.637C190.061 352.849 189.607 353.02 189.277 353.361C188.946 353.692 188.781 354.145 188.781 354.721V359.425C188.781 359.532 188.743 359.623 188.669 359.697C188.594 359.761 188.503 359.793 188.397 359.793H187.613ZM193.563 349.921C193.456 349.921 193.365 349.889 193.291 349.825C193.227 349.751 193.195 349.66 193.195 349.553V348.689C193.195 348.583 193.227 348.492 193.291 348.417C193.365 348.343 193.456 348.305 193.563 348.305H194.571C194.677 348.305 194.768 348.343 194.843 348.417C194.917 348.492 194.955 348.583 194.955 348.689V349.553C194.955 349.66 194.917 349.751 194.843 349.825C194.768 349.889 194.677 349.921 194.571 349.921H193.563ZM193.691 359.793C193.584 359.793 193.493 359.761 193.419 359.697C193.355 359.623 193.323 359.532 193.323 359.425V351.841C193.323 351.735 193.355 351.649 193.419 351.585C193.493 351.511 193.584 351.473 193.691 351.473H194.459C194.565 351.473 194.651 351.511 194.715 351.585C194.789 351.649 194.827 351.735 194.827 351.841V359.425C194.827 359.532 194.789 359.623 194.715 359.697C194.651 359.761 194.565 359.793 194.459 359.793H193.691ZM200.094 359.793C199.816 359.793 199.619 359.66 199.502 359.393L196.542 351.969L196.51 351.809C196.51 351.713 196.542 351.633 196.606 351.569C196.67 351.505 196.75 351.473 196.846 351.473H197.614C197.795 351.473 197.928 351.564 198.014 351.745L200.446 358.049L202.878 351.745C202.974 351.564 203.102 351.473 203.262 351.473H204.046C204.131 351.473 204.206 351.505 204.27 351.569C204.344 351.633 204.382 351.713 204.382 351.809L204.35 351.969L201.374 359.393C201.256 359.66 201.059 359.793 200.782 359.793H200.094ZM208.065 359.953C207.542 359.953 207.057 359.847 206.609 359.633C206.161 359.42 205.803 359.132 205.537 358.769C205.281 358.396 205.153 357.985 205.153 357.537C205.153 356.833 205.441 356.257 206.017 355.809C206.603 355.351 207.393 355.052 208.385 354.913L210.769 354.577V354.113C210.769 353.025 210.145 352.481 208.897 352.481C208.427 352.481 208.043 352.583 207.745 352.785C207.446 352.977 207.222 353.207 207.073 353.473C207.041 353.569 206.998 353.639 206.945 353.681C206.902 353.724 206.838 353.745 206.753 353.745H206.065C205.969 353.745 205.883 353.713 205.809 353.649C205.745 353.575 205.713 353.489 205.713 353.393C205.723 353.137 205.841 352.849 206.065 352.529C206.299 352.199 206.657 351.916 207.137 351.681C207.617 351.436 208.209 351.313 208.913 351.313C210.107 351.313 210.966 351.596 211.489 352.161C212.011 352.716 212.273 353.409 212.273 354.241V359.425C212.273 359.532 212.235 359.623 212.161 359.697C212.097 359.761 212.011 359.793 211.905 359.793H211.169C211.062 359.793 210.971 359.761 210.897 359.697C210.833 359.623 210.801 359.532 210.801 359.425V358.737C210.566 359.079 210.225 359.367 209.777 359.601C209.329 359.836 208.758 359.953 208.065 359.953ZM208.401 358.753C209.094 358.753 209.659 358.529 210.097 358.081C210.545 357.623 210.769 356.967 210.769 356.113V355.665L208.913 355.937C208.155 356.044 207.585 356.225 207.201 356.481C206.817 356.727 206.625 357.041 206.625 357.425C206.625 357.852 206.801 358.183 207.153 358.417C207.505 358.641 207.921 358.753 208.401 358.753ZM217.933 359.953C216.791 359.953 215.895 359.633 215.245 358.993C214.605 358.343 214.263 357.436 214.221 356.273L214.205 355.633L214.221 354.993C214.263 353.831 214.605 352.929 215.245 352.289C215.895 351.639 216.791 351.313 217.933 351.313C218.701 351.313 219.351 351.452 219.885 351.729C220.418 352.007 220.813 352.348 221.069 352.753C221.335 353.159 221.479 353.564 221.501 353.969C221.511 354.076 221.479 354.161 221.405 354.225C221.33 354.289 221.239 354.321 221.133 354.321H220.365C220.258 354.321 220.178 354.3 220.125 354.257C220.071 354.215 220.018 354.129 219.965 354.001C219.783 353.489 219.527 353.127 219.197 352.913C218.866 352.689 218.45 352.577 217.949 352.577C217.287 352.577 216.759 352.785 216.365 353.201C215.981 353.607 215.773 354.231 215.741 355.073L215.725 355.649L215.741 356.193C215.773 357.047 215.981 357.676 216.365 358.081C216.749 358.487 217.277 358.689 217.949 358.689C218.45 358.689 218.866 358.583 219.197 358.369C219.527 358.145 219.783 357.777 219.965 357.265C220.018 357.137 220.071 357.052 220.125 357.009C220.178 356.956 220.258 356.929 220.365 356.929H221.133C221.239 356.929 221.33 356.967 221.405 357.041C221.479 357.105 221.511 357.191 221.501 357.297C221.479 357.692 221.335 358.097 221.069 358.513C220.813 358.919 220.418 359.26 219.885 359.537C219.362 359.815 218.711 359.953 217.933 359.953ZM224.622 362.833C224.537 362.833 224.462 362.801 224.398 362.737C224.334 362.673 224.302 362.599 224.302 362.513C224.302 362.439 224.329 362.343 224.382 362.225L225.614 359.297L222.558 352.081C222.505 351.943 222.478 351.852 222.478 351.809C222.478 351.713 222.51 351.633 222.574 351.569C222.638 351.505 222.718 351.473 222.814 351.473H223.598C223.769 351.473 223.897 351.564 223.982 351.745L226.414 357.569L228.91 351.745C228.996 351.564 229.129 351.473 229.31 351.473H230.062C230.158 351.473 230.238 351.505 230.302 351.569C230.366 351.633 230.398 351.708 230.398 351.793C230.398 351.825 230.372 351.921 230.318 352.081L225.774 362.561C225.689 362.743 225.556 362.833 225.374 362.833H224.622ZM237.815 359.953C237.292 359.953 236.807 359.847 236.359 359.633C235.911 359.42 235.553 359.132 235.287 358.769C235.031 358.396 234.903 357.985 234.903 357.537C234.903 356.833 235.191 356.257 235.767 355.809C236.353 355.351 237.143 355.052 238.135 354.913L240.519 354.577V354.113C240.519 353.025 239.895 352.481 238.647 352.481C238.177 352.481 237.793 352.583 237.495 352.785C237.196 352.977 236.972 353.207 236.823 353.473C236.791 353.569 236.748 353.639 236.695 353.681C236.652 353.724 236.588 353.745 236.503 353.745H235.815C235.719 353.745 235.633 353.713 235.559 353.649C235.495 353.575 235.463 353.489 235.463 353.393C235.473 353.137 235.591 352.849 235.815 352.529C236.049 352.199 236.407 351.916 236.887 351.681C237.367 351.436 237.959 351.313 238.663 351.313C239.857 351.313 240.716 351.596 241.239 352.161C241.761 352.716 242.023 353.409 242.023 354.241V359.425C242.023 359.532 241.985 359.623 241.911 359.697C241.847 359.761 241.761 359.793 241.655 359.793H240.919C240.812 359.793 240.721 359.761 240.647 359.697C240.583 359.623 240.551 359.532 240.551 359.425V358.737C240.316 359.079 239.975 359.367 239.527 359.601C239.079 359.836 238.508 359.953 237.815 359.953ZM238.151 358.753C238.844 358.753 239.409 358.529 239.847 358.081C240.295 357.623 240.519 356.967 240.519 356.113V355.665L238.663 355.937C237.905 356.044 237.335 356.225 236.951 356.481C236.567 356.727 236.375 357.041 236.375 357.425C236.375 357.852 236.551 358.183 236.903 358.417C237.255 358.641 237.671 358.753 238.151 358.753ZM248.821 359.793C248.714 359.793 248.623 359.761 248.549 359.697C248.485 359.623 248.453 359.532 248.453 359.425V348.977C248.453 348.86 248.485 348.769 248.549 348.705C248.623 348.631 248.714 348.593 248.821 348.593H252.725C253.951 348.593 254.911 348.881 255.605 349.457C256.298 350.033 256.645 350.865 256.645 351.953C256.645 352.764 256.442 353.431 256.037 353.953C255.642 354.476 255.082 354.839 254.357 355.041L256.821 359.297C256.853 359.361 256.869 359.42 256.869 359.473C256.869 359.559 256.831 359.633 256.757 359.697C256.693 359.761 256.618 359.793 256.533 359.793H255.765C255.605 359.793 255.477 359.756 255.381 359.681C255.295 359.607 255.215 359.5 255.141 359.361L252.821 355.297H250.021V359.425C250.021 359.532 249.983 359.623 249.909 359.697C249.834 359.761 249.743 359.793 249.637 359.793H248.821ZM252.661 353.937C254.25 353.937 255.045 353.271 255.045 351.937C255.045 350.604 254.25 349.937 252.661 349.937H250.021V353.937H252.661ZM261.963 359.953C260.865 359.953 259.985 359.617 259.323 358.945C258.673 358.263 258.315 357.335 258.251 356.161L258.235 355.617L258.251 355.089C258.326 353.937 258.689 353.02 259.339 352.337C260.001 351.655 260.87 351.313 261.947 351.313C263.131 351.313 264.049 351.692 264.699 352.449C265.35 353.196 265.675 354.209 265.675 355.489V355.761C265.675 355.868 265.638 355.959 265.563 356.033C265.499 356.097 265.414 356.129 265.307 356.129H259.771V356.273C259.803 356.967 260.011 357.559 260.395 358.049C260.79 358.529 261.307 358.769 261.947 358.769C262.438 358.769 262.838 358.673 263.147 358.481C263.467 358.279 263.702 358.071 263.851 357.857C263.947 357.729 264.017 357.655 264.059 357.633C264.113 357.601 264.203 357.585 264.331 357.585H265.115C265.211 357.585 265.291 357.612 265.355 357.665C265.419 357.719 265.451 357.793 265.451 357.889C265.451 358.124 265.302 358.407 265.003 358.737C264.715 359.068 264.305 359.356 263.771 359.601C263.249 359.836 262.646 359.953 261.963 359.953ZM264.155 355.025V354.977C264.155 354.241 263.953 353.644 263.547 353.185C263.153 352.716 262.619 352.481 261.947 352.481C261.275 352.481 260.742 352.716 260.347 353.185C259.963 353.644 259.771 354.241 259.771 354.977V355.025H264.155ZM269.908 359.953C269.386 359.953 268.9 359.847 268.452 359.633C268.004 359.42 267.647 359.132 267.38 358.769C267.124 358.396 266.996 357.985 266.996 357.537C266.996 356.833 267.284 356.257 267.86 355.809C268.447 355.351 269.236 355.052 270.228 354.913L272.612 354.577V354.113C272.612 353.025 271.988 352.481 270.74 352.481C270.271 352.481 269.887 352.583 269.588 352.785C269.29 352.977 269.066 353.207 268.916 353.473C268.884 353.569 268.842 353.639 268.788 353.681C268.746 353.724 268.682 353.745 268.596 353.745H267.908C267.812 353.745 267.727 353.713 267.652 353.649C267.588 353.575 267.556 353.489 267.556 353.393C267.567 353.137 267.684 352.849 267.908 352.529C268.143 352.199 268.5 351.916 268.98 351.681C269.46 351.436 270.052 351.313 270.756 351.313C271.951 351.313 272.81 351.596 273.332 352.161C273.855 352.716 274.116 353.409 274.116 354.241V359.425C274.116 359.532 274.079 359.623 274.004 359.697C273.94 359.761 273.855 359.793 273.748 359.793H273.012C272.906 359.793 272.815 359.761 272.74 359.697C272.676 359.623 272.644 359.532 272.644 359.425V358.737C272.41 359.079 272.068 359.367 271.62 359.601C271.172 359.836 270.602 359.953 269.908 359.953ZM270.244 358.753C270.938 358.753 271.503 358.529 271.94 358.081C272.388 357.623 272.612 356.967 272.612 356.113V355.665L270.756 355.937C269.999 356.044 269.428 356.225 269.044 356.481C268.66 356.727 268.468 357.041 268.468 357.425C268.468 357.852 268.644 358.183 268.996 358.417C269.348 358.641 269.764 358.753 270.244 358.753ZM276.8 359.793C276.694 359.793 276.603 359.761 276.528 359.697C276.464 359.623 276.432 359.532 276.432 359.425V348.801C276.432 348.695 276.464 348.609 276.528 348.545C276.603 348.471 276.694 348.433 276.8 348.433H277.552C277.659 348.433 277.744 348.471 277.808 348.545C277.883 348.609 277.92 348.695 277.92 348.801V359.425C277.92 359.532 277.883 359.623 277.808 359.697C277.744 359.761 277.659 359.793 277.552 359.793H276.8ZM280.547 349.921C280.44 349.921 280.35 349.889 280.275 349.825C280.211 349.751 280.179 349.66 280.179 349.553V348.689C280.179 348.583 280.211 348.492 280.275 348.417C280.35 348.343 280.44 348.305 280.547 348.305H281.555C281.662 348.305 281.752 348.343 281.827 348.417C281.902 348.492 281.939 348.583 281.939 348.689V349.553C281.939 349.66 281.902 349.751 281.827 349.825C281.752 349.889 281.662 349.921 281.555 349.921H280.547ZM280.675 359.793C280.568 359.793 280.478 359.761 280.403 359.697C280.339 359.623 280.307 359.532 280.307 359.425V351.841C280.307 351.735 280.339 351.649 280.403 351.585C280.478 351.511 280.568 351.473 280.675 351.473H281.443C281.55 351.473 281.635 351.511 281.699 351.585C281.774 351.649 281.811 351.735 281.811 351.841V359.425C281.811 359.532 281.774 359.623 281.699 359.697C281.635 359.761 281.55 359.793 281.443 359.793H280.675ZM287.43 359.793C285.745 359.793 284.902 358.855 284.902 356.977V352.753H283.654C283.547 352.753 283.457 352.721 283.382 352.657C283.318 352.583 283.286 352.492 283.286 352.385V351.841C283.286 351.735 283.318 351.649 283.382 351.585C283.457 351.511 283.547 351.473 283.654 351.473H284.902V348.801C284.902 348.695 284.934 348.609 284.998 348.545C285.073 348.471 285.163 348.433 285.27 348.433H286.022C286.129 348.433 286.214 348.471 286.278 348.545C286.353 348.609 286.39 348.695 286.39 348.801V351.473H288.374C288.481 351.473 288.566 351.511 288.63 351.585C288.705 351.649 288.742 351.735 288.742 351.841V352.385C288.742 352.492 288.705 352.583 288.63 352.657C288.566 352.721 288.481 352.753 288.374 352.753H286.39V356.865C286.39 357.399 286.481 357.804 286.662 358.081C286.843 358.348 287.142 358.481 287.558 358.481H288.534C288.641 358.481 288.726 358.519 288.79 358.593C288.865 358.657 288.902 358.743 288.902 358.849V359.425C288.902 359.532 288.865 359.623 288.79 359.697C288.726 359.761 288.641 359.793 288.534 359.793H287.43ZM291.888 362.833C291.803 362.833 291.728 362.801 291.664 362.737C291.6 362.673 291.568 362.599 291.568 362.513C291.568 362.439 291.595 362.343 291.648 362.225L292.88 359.297L289.824 352.081C289.771 351.943 289.744 351.852 289.744 351.809C289.744 351.713 289.776 351.633 289.84 351.569C289.904 351.505 289.984 351.473 290.08 351.473H290.864C291.035 351.473 291.163 351.564 291.248 351.745L293.68 357.569L296.176 351.745C296.261 351.564 296.395 351.473 296.576 351.473H297.328C297.424 351.473 297.504 351.505 297.568 351.569C297.632 351.633 297.664 351.708 297.664 351.793C297.664 351.825 297.637 351.921 297.584 352.081L293.04 362.561C292.955 362.743 292.821 362.833 292.64 362.833H291.888Z" fill="white"/>
<path d="M147.166 632.938C147.073 632.938 146.993 632.91 146.928 632.854C146.872 632.789 146.844 632.709 146.844 632.616V623.474C146.844 623.371 146.872 623.292 146.928 623.236C146.993 623.171 147.073 623.138 147.166 623.138H151.002C152.001 623.138 152.752 623.376 153.256 623.852C153.76 624.328 154.012 624.953 154.012 625.728C154.012 626.251 153.891 626.685 153.648 627.03C153.415 627.375 153.135 627.627 152.808 627.786C153.2 627.982 153.531 628.285 153.802 628.696C154.073 629.107 154.208 629.578 154.208 630.11C154.208 630.633 154.087 631.109 153.844 631.538C153.611 631.967 153.261 632.308 152.794 632.56C152.327 632.812 151.767 632.938 151.114 632.938H147.166ZM150.792 627.282C151.38 627.282 151.828 627.147 152.136 626.876C152.453 626.605 152.612 626.227 152.612 625.742C152.612 625.266 152.458 624.902 152.15 624.65C151.842 624.398 151.389 624.272 150.792 624.272H148.216V627.282H150.792ZM150.932 631.804C151.52 631.804 151.977 631.645 152.304 631.328C152.64 631.011 152.808 630.605 152.808 630.11C152.808 629.597 152.64 629.186 152.304 628.878C151.977 628.561 151.52 628.402 150.932 628.402H148.216V631.804H150.932ZM156.336 632.938C156.242 632.938 156.163 632.91 156.098 632.854C156.042 632.789 156.014 632.709 156.014 632.616V625.994C156.014 625.901 156.042 625.821 156.098 625.756C156.163 625.691 156.242 625.658 156.336 625.658H156.98C157.073 625.658 157.152 625.691 157.218 625.756C157.283 625.821 157.316 625.901 157.316 625.994V626.61C157.698 625.975 158.352 625.658 159.276 625.658H159.822C159.915 625.658 159.99 625.691 160.046 625.756C160.111 625.812 160.144 625.887 160.144 625.98V626.554C160.144 626.647 160.111 626.722 160.046 626.778C159.99 626.834 159.915 626.862 159.822 626.862H158.982C158.478 626.862 158.081 627.011 157.792 627.31C157.502 627.599 157.358 627.996 157.358 628.5V632.616C157.358 632.709 157.325 632.789 157.26 632.854C157.194 632.91 157.115 632.938 157.022 632.938H156.336ZM164.177 633.078C163.151 633.078 162.353 632.789 161.783 632.21C161.223 631.631 160.925 630.861 160.887 629.9L160.873 629.298L160.887 628.696C160.925 627.744 161.228 626.979 161.797 626.4C162.367 625.812 163.16 625.518 164.177 625.518C165.195 625.518 165.988 625.812 166.557 626.4C167.127 626.979 167.43 627.744 167.467 628.696C167.477 628.799 167.481 628.999 167.481 629.298C167.481 629.597 167.477 629.797 167.467 629.9C167.43 630.861 167.127 631.631 166.557 632.21C165.997 632.789 165.204 633.078 164.177 633.078ZM164.177 632C164.765 632 165.227 631.813 165.563 631.44C165.909 631.067 166.095 630.53 166.123 629.83C166.133 629.737 166.137 629.559 166.137 629.298C166.137 629.037 166.133 628.859 166.123 628.766C166.095 628.066 165.909 627.529 165.563 627.156C165.227 626.783 164.765 626.596 164.177 626.596C163.589 626.596 163.123 626.783 162.777 627.156C162.432 627.529 162.25 628.066 162.231 628.766L162.217 629.298L162.231 629.83C162.25 630.53 162.432 631.067 162.777 631.44C163.123 631.813 163.589 632 164.177 632ZM171.95 633.078C171.064 633.078 170.378 632.793 169.892 632.224C169.407 631.645 169.164 630.88 169.164 629.928V625.98C169.164 625.887 169.192 625.812 169.248 625.756C169.314 625.691 169.393 625.658 169.486 625.658H170.186C170.28 625.658 170.354 625.691 170.41 625.756C170.476 625.812 170.508 625.887 170.508 625.98V629.858C170.508 631.249 171.115 631.944 172.328 631.944C172.916 631.944 173.383 631.762 173.728 631.398C174.074 631.025 174.246 630.511 174.246 629.858V625.98C174.246 625.887 174.274 625.812 174.33 625.756C174.396 625.691 174.475 625.658 174.568 625.658H175.268C175.362 625.658 175.436 625.691 175.492 625.756C175.548 625.812 175.576 625.887 175.576 625.98V632.616C175.576 632.709 175.548 632.789 175.492 632.854C175.436 632.91 175.362 632.938 175.268 632.938H174.61C174.517 632.938 174.438 632.91 174.372 632.854C174.316 632.789 174.288 632.709 174.288 632.616V632C174.027 632.355 173.71 632.625 173.336 632.812C172.963 632.989 172.501 633.078 171.95 633.078ZM180.638 636.018C179.873 636.018 179.257 635.887 178.79 635.626C178.323 635.374 177.992 635.085 177.796 634.758C177.6 634.431 177.493 634.137 177.474 633.876C177.465 633.783 177.493 633.703 177.558 633.638C177.633 633.573 177.712 633.54 177.796 633.54H178.468C178.552 633.54 178.622 633.559 178.678 633.596C178.734 633.643 178.781 633.722 178.818 633.834C178.93 634.133 179.112 634.389 179.364 634.604C179.625 634.828 180.027 634.94 180.568 634.94C181.259 634.94 181.767 634.791 182.094 634.492C182.421 634.203 182.584 633.685 182.584 632.938V631.986C182.341 632.294 182.033 632.541 181.66 632.728C181.287 632.905 180.843 632.994 180.33 632.994C179.341 632.994 178.599 632.681 178.104 632.056C177.619 631.421 177.362 630.619 177.334 629.648L177.32 629.256L177.334 628.878C177.362 627.917 177.623 627.119 178.118 626.484C178.613 625.84 179.35 625.518 180.33 625.518C181.31 625.518 182.075 625.877 182.626 626.596V625.994C182.626 625.901 182.654 625.821 182.71 625.756C182.775 625.691 182.855 625.658 182.948 625.658H183.592C183.685 625.658 183.765 625.691 183.83 625.756C183.895 625.821 183.928 625.901 183.928 625.994V632.784C183.928 634.94 182.831 636.018 180.638 636.018ZM180.61 631.874C181.245 631.874 181.725 631.664 182.052 631.244C182.379 630.824 182.556 630.325 182.584 629.746C182.593 629.662 182.598 629.499 182.598 629.256C182.598 629.023 182.593 628.864 182.584 628.78C182.556 628.201 182.379 627.702 182.052 627.282C181.735 626.862 181.254 626.652 180.61 626.652C179.947 626.652 179.467 626.857 179.168 627.268C178.869 627.679 178.706 628.22 178.678 628.892L178.664 629.256L178.678 629.634C178.706 630.297 178.869 630.838 179.168 631.258C179.467 631.669 179.947 631.874 180.61 631.874ZM186.346 632.938C186.252 632.938 186.173 632.91 186.108 632.854C186.052 632.789 186.024 632.709 186.024 632.616V623.32C186.024 623.227 186.052 623.152 186.108 623.096C186.173 623.031 186.252 622.998 186.346 622.998H187.046C187.139 622.998 187.214 623.031 187.27 623.096C187.335 623.152 187.368 623.227 187.368 623.32V626.582C187.638 626.237 187.956 625.975 188.32 625.798C188.684 625.611 189.136 625.518 189.678 625.518C190.574 625.518 191.269 625.807 191.764 626.386C192.268 626.955 192.52 627.716 192.52 628.668V632.616C192.52 632.709 192.487 632.789 192.422 632.854C192.366 632.91 192.291 632.938 192.198 632.938H191.498C191.404 632.938 191.325 632.91 191.26 632.854C191.204 632.789 191.176 632.709 191.176 632.616V628.738C191.176 628.075 191.012 627.562 190.686 627.198C190.368 626.834 189.906 626.652 189.3 626.652C188.712 626.652 188.24 626.839 187.886 627.212C187.54 627.576 187.368 628.085 187.368 628.738V632.616C187.368 632.709 187.335 632.789 187.27 632.854C187.214 632.91 187.139 632.938 187.046 632.938H186.346ZM197.287 632.938C195.813 632.938 195.075 632.117 195.075 630.474V626.778H193.983C193.89 626.778 193.811 626.75 193.745 626.694C193.689 626.629 193.661 626.549 193.661 626.456V625.98C193.661 625.887 193.689 625.812 193.745 625.756C193.811 625.691 193.89 625.658 193.983 625.658H195.075V623.32C195.075 623.227 195.103 623.152 195.159 623.096C195.225 623.031 195.304 622.998 195.397 622.998H196.055C196.149 622.998 196.223 623.031 196.279 623.096C196.345 623.152 196.377 623.227 196.377 623.32V625.658H198.113C198.207 625.658 198.281 625.691 198.337 625.756C198.403 625.812 198.435 625.887 198.435 625.98V626.456C198.435 626.549 198.403 626.629 198.337 626.694C198.281 626.75 198.207 626.778 198.113 626.778H196.377V630.376C196.377 630.843 196.457 631.197 196.615 631.44C196.774 631.673 197.035 631.79 197.399 631.79H198.253C198.347 631.79 198.421 631.823 198.477 631.888C198.543 631.944 198.575 632.019 198.575 632.112V632.616C198.575 632.709 198.543 632.789 198.477 632.854C198.421 632.91 198.347 632.938 198.253 632.938H197.287ZM205.887 632.938C204.412 632.938 203.675 632.117 203.675 630.474V626.778H202.583C202.489 626.778 202.41 626.75 202.345 626.694C202.289 626.629 202.261 626.549 202.261 626.456V625.98C202.261 625.887 202.289 625.812 202.345 625.756C202.41 625.691 202.489 625.658 202.583 625.658H203.675V623.32C203.675 623.227 203.703 623.152 203.759 623.096C203.824 623.031 203.903 622.998 203.997 622.998H204.655C204.748 622.998 204.823 623.031 204.879 623.096C204.944 623.152 204.977 623.227 204.977 623.32V625.658H206.713C206.806 625.658 206.881 625.691 206.937 625.756C207.002 625.812 207.035 625.887 207.035 625.98V626.456C207.035 626.549 207.002 626.629 206.937 626.694C206.881 626.75 206.806 626.778 206.713 626.778H204.977V630.376C204.977 630.843 205.056 631.197 205.215 631.44C205.373 631.673 205.635 631.79 205.999 631.79H206.853C206.946 631.79 207.021 631.823 207.077 631.888C207.142 631.944 207.175 632.019 207.175 632.112V632.616C207.175 632.709 207.142 632.789 207.077 632.854C207.021 632.91 206.946 632.938 206.853 632.938H205.887ZM211.496 633.078C210.469 633.078 209.671 632.789 209.102 632.21C208.542 631.631 208.243 630.861 208.206 629.9L208.192 629.298L208.206 628.696C208.243 627.744 208.546 626.979 209.116 626.4C209.685 625.812 210.478 625.518 211.496 625.518C212.513 625.518 213.306 625.812 213.876 626.4C214.445 626.979 214.748 627.744 214.786 628.696C214.795 628.799 214.8 628.999 214.8 629.298C214.8 629.597 214.795 629.797 214.786 629.9C214.748 630.861 214.445 631.631 213.876 632.21C213.316 632.789 212.522 633.078 211.496 633.078ZM211.496 632C212.084 632 212.546 631.813 212.882 631.44C213.227 631.067 213.414 630.53 213.442 629.83C213.451 629.737 213.456 629.559 213.456 629.298C213.456 629.037 213.451 628.859 213.442 628.766C213.414 628.066 213.227 627.529 212.882 627.156C212.546 626.783 212.084 626.596 211.496 626.596C210.908 626.596 210.441 626.783 210.096 627.156C209.75 627.529 209.568 628.066 209.55 628.766L209.536 629.298L209.55 629.83C209.568 630.53 209.75 631.067 210.096 631.44C210.441 631.813 210.908 632 211.496 632ZM220.875 635.598C220.801 635.598 220.735 635.57 220.679 635.514C220.623 635.458 220.595 635.393 220.595 635.318C220.595 635.253 220.619 635.169 220.665 635.066L221.743 632.504L219.069 626.19C219.023 626.069 218.999 625.989 218.999 625.952C218.999 625.868 219.027 625.798 219.083 625.742C219.139 625.686 219.209 625.658 219.293 625.658H219.979C220.129 625.658 220.241 625.737 220.315 625.896L222.443 630.992L224.627 625.896C224.702 625.737 224.819 625.658 224.977 625.658H225.635C225.719 625.658 225.789 625.686 225.845 625.742C225.901 625.798 225.929 625.863 225.929 625.938C225.929 625.966 225.906 626.05 225.859 626.19L221.883 635.36C221.809 635.519 221.692 635.598 221.533 635.598H220.875ZM230.062 633.078C229.035 633.078 228.237 632.789 227.668 632.21C227.108 631.631 226.809 630.861 226.772 629.9L226.758 629.298L226.772 628.696C226.809 627.744 227.113 626.979 227.682 626.4C228.251 625.812 229.045 625.518 230.062 625.518C231.079 625.518 231.873 625.812 232.442 626.4C233.011 626.979 233.315 627.744 233.352 628.696C233.361 628.799 233.366 628.999 233.366 629.298C233.366 629.597 233.361 629.797 233.352 629.9C233.315 630.861 233.011 631.631 232.442 632.21C231.882 632.789 231.089 633.078 230.062 633.078ZM230.062 632C230.65 632 231.112 631.813 231.448 631.44C231.793 631.067 231.98 630.53 232.008 629.83C232.017 629.737 232.022 629.559 232.022 629.298C232.022 629.037 232.017 628.859 232.008 628.766C231.98 628.066 231.793 627.529 231.448 627.156C231.112 626.783 230.65 626.596 230.062 626.596C229.474 626.596 229.007 626.783 228.662 627.156C228.317 627.529 228.135 628.066 228.116 628.766L228.102 629.298L228.116 629.83C228.135 630.53 228.317 631.067 228.662 631.44C229.007 631.813 229.474 632 230.062 632ZM237.835 633.078C236.948 633.078 236.262 632.793 235.777 632.224C235.292 631.645 235.049 630.88 235.049 629.928V625.98C235.049 625.887 235.077 625.812 235.133 625.756C235.198 625.691 235.278 625.658 235.371 625.658H236.071C236.164 625.658 236.239 625.691 236.295 625.756C236.36 625.812 236.393 625.887 236.393 625.98V629.858C236.393 631.249 237 631.944 238.213 631.944C238.801 631.944 239.268 631.762 239.613 631.398C239.958 631.025 240.131 630.511 240.131 629.858V625.98C240.131 625.887 240.159 625.812 240.215 625.756C240.28 625.691 240.36 625.658 240.453 625.658H241.153C241.246 625.658 241.321 625.691 241.377 625.756C241.433 625.812 241.461 625.887 241.461 625.98V632.616C241.461 632.709 241.433 632.789 241.377 632.854C241.321 632.91 241.246 632.938 241.153 632.938H240.495C240.402 632.938 240.322 632.91 240.257 632.854C240.201 632.789 240.173 632.709 240.173 632.616V632C239.912 632.355 239.594 632.625 239.221 632.812C238.848 632.989 238.386 633.078 237.835 633.078ZM250.571 633.078C249.563 633.078 248.797 632.728 248.275 632.028V632.616C248.275 632.709 248.242 632.789 248.177 632.854C248.121 632.91 248.046 632.938 247.953 632.938H247.309C247.215 632.938 247.136 632.91 247.071 632.854C247.015 632.789 246.987 632.709 246.987 632.616V623.32C246.987 623.227 247.015 623.152 247.071 623.096C247.136 623.031 247.215 622.998 247.309 622.998H247.995C248.088 622.998 248.163 623.031 248.219 623.096C248.275 623.152 248.303 623.227 248.303 623.32V626.54C248.853 625.859 249.609 625.518 250.571 625.518C251.541 625.518 252.274 625.84 252.769 626.484C253.263 627.119 253.529 627.917 253.567 628.878C253.576 628.981 253.581 629.121 253.581 629.298C253.581 629.475 253.576 629.615 253.567 629.718C253.529 630.689 253.263 631.491 252.769 632.126C252.274 632.761 251.541 633.078 250.571 633.078ZM250.277 631.944C250.939 631.944 251.42 631.739 251.719 631.328C252.027 630.917 252.195 630.376 252.223 629.704C252.232 629.611 252.237 629.475 252.237 629.298C252.237 627.534 251.583 626.652 250.277 626.652C249.651 626.652 249.171 626.857 248.835 627.268C248.499 627.679 248.321 628.159 248.303 628.71L248.289 629.256L248.303 629.788C248.331 630.376 248.503 630.885 248.821 631.314C249.147 631.734 249.633 631.944 250.277 631.944ZM256.299 635.598C256.225 635.598 256.159 635.57 256.103 635.514C256.047 635.458 256.019 635.393 256.019 635.318C256.019 635.253 256.043 635.169 256.089 635.066L257.167 632.504L254.493 626.19C254.447 626.069 254.423 625.989 254.423 625.952C254.423 625.868 254.451 625.798 254.507 625.742C254.563 625.686 254.633 625.658 254.717 625.658H255.403C255.553 625.658 255.665 625.737 255.739 625.896L257.867 630.992L260.051 625.896C260.126 625.737 260.243 625.658 260.401 625.658H261.059C261.143 625.658 261.213 625.686 261.269 625.742C261.325 625.798 261.353 625.863 261.353 625.938C261.353 625.966 261.33 626.05 261.283 626.19L257.307 635.36C257.233 635.519 257.116 635.598 256.957 635.598H256.299Z" fill="#565656"/>
<ellipse cx="203.17" cy="691.738" rx="24.719" ry="24.6137" fill="#38B2E5"/>
<path d="M189.215 675.968C189.127 675.968 189.052 675.942 188.991 675.889C188.938 675.827 188.912 675.753 188.912 675.665V674.951C188.912 674.863 188.938 674.789 188.991 674.727C189.052 674.665 189.127 674.634 189.215 674.634H190.047C190.135 674.634 190.21 674.665 190.272 674.727C190.334 674.789 190.364 674.863 190.364 674.951V675.665C190.364 675.753 190.334 675.827 190.272 675.889C190.21 675.942 190.135 675.968 190.047 675.968H189.215ZM189.321 684.117C189.233 684.117 189.158 684.091 189.096 684.038C189.044 683.976 189.017 683.901 189.017 683.813V677.553C189.017 677.465 189.044 677.395 189.096 677.342C189.158 677.28 189.233 677.249 189.321 677.249H189.955C190.043 677.249 190.113 677.28 190.166 677.342C190.228 677.395 190.259 677.465 190.259 677.553V683.813C190.259 683.901 190.228 683.976 190.166 684.038C190.113 684.091 190.043 684.117 189.955 684.117H189.321ZM196.046 684.249C195.13 684.249 194.439 683.95 193.972 683.351C193.506 682.752 193.259 681.995 193.233 681.079L193.22 680.683L193.233 680.287C193.259 679.38 193.506 678.627 193.972 678.029C194.439 677.421 195.13 677.117 196.046 677.117C196.953 677.117 197.666 677.439 198.185 678.081V675.044C198.185 674.956 198.212 674.885 198.265 674.833C198.326 674.771 198.401 674.74 198.489 674.74H199.123C199.211 674.74 199.282 674.771 199.334 674.833C199.396 674.885 199.427 674.956 199.427 675.044V683.813C199.427 683.901 199.396 683.976 199.334 684.038C199.282 684.091 199.211 684.117 199.123 684.117H198.529C198.441 684.117 198.366 684.091 198.304 684.038C198.251 683.976 198.225 683.901 198.225 683.813V683.259C197.714 683.919 196.988 684.249 196.046 684.249ZM196.323 683.179C196.931 683.179 197.384 682.981 197.684 682.585C197.992 682.18 198.159 681.7 198.185 681.145C198.194 681.049 198.199 680.881 198.199 680.644C198.199 680.397 198.194 680.225 198.185 680.129C198.168 679.609 198 679.156 197.684 678.768C197.367 678.381 196.913 678.187 196.323 678.187C195.698 678.187 195.24 678.381 194.95 678.768C194.668 679.156 194.514 679.666 194.487 680.3L194.474 680.683C194.474 682.347 195.091 683.179 196.323 683.179ZM206.106 684.249C205.155 684.249 204.433 683.919 203.94 683.259V683.813C203.94 683.901 203.909 683.976 203.848 684.038C203.795 684.091 203.724 684.117 203.636 684.117H203.029C202.941 684.117 202.866 684.091 202.804 684.038C202.751 683.976 202.725 683.901 202.725 683.813V675.044C202.725 674.956 202.751 674.885 202.804 674.833C202.866 674.771 202.941 674.74 203.029 674.74H203.676C203.764 674.74 203.834 674.771 203.887 674.833C203.94 674.885 203.966 674.956 203.966 675.044V678.081C204.486 677.439 205.199 677.117 206.106 677.117C207.022 677.117 207.713 677.421 208.179 678.029C208.646 678.627 208.897 679.38 208.932 680.287C208.941 680.384 208.945 680.516 208.945 680.683C208.945 680.851 208.941 680.983 208.932 681.079C208.897 681.995 208.646 682.752 208.179 683.351C207.713 683.95 207.022 684.249 206.106 684.249ZM205.829 683.179C206.454 683.179 206.907 682.986 207.189 682.598C207.479 682.211 207.638 681.7 207.664 681.066C207.673 680.978 207.678 680.851 207.678 680.683C207.678 679.019 207.061 678.187 205.829 678.187C205.239 678.187 204.785 678.381 204.468 678.768C204.151 679.156 203.984 679.609 203.966 680.129L203.953 680.644L203.966 681.145C203.993 681.7 204.156 682.18 204.455 682.585C204.763 682.981 205.221 683.179 205.829 683.179ZM214.634 684.249C213.727 684.249 213.001 683.972 212.455 683.417C211.918 682.854 211.623 682.088 211.57 681.119L211.557 680.67L211.57 680.234C211.632 679.283 211.931 678.526 212.468 677.963C213.014 677.399 213.732 677.117 214.621 677.117C215.598 677.117 216.355 677.43 216.892 678.055C217.43 678.671 217.698 679.508 217.698 680.564V680.789C217.698 680.877 217.667 680.952 217.606 681.013C217.553 681.066 217.482 681.093 217.394 681.093H212.825V681.212C212.851 681.784 213.023 682.272 213.34 682.678C213.666 683.074 214.093 683.272 214.621 683.272C215.026 683.272 215.356 683.193 215.611 683.034C215.876 682.867 216.069 682.695 216.192 682.519C216.272 682.413 216.329 682.352 216.364 682.334C216.408 682.308 216.483 682.295 216.589 682.295H217.236C217.315 682.295 217.381 682.317 217.434 682.361C217.487 682.405 217.513 682.466 217.513 682.545C217.513 682.739 217.39 682.972 217.143 683.245C216.906 683.518 216.567 683.756 216.126 683.959C215.695 684.152 215.198 684.249 214.634 684.249ZM216.443 680.181V680.142C216.443 679.534 216.276 679.041 215.942 678.663C215.616 678.275 215.176 678.081 214.621 678.081C214.066 678.081 213.626 678.275 213.3 678.663C212.983 679.041 212.825 679.534 212.825 680.142V680.181H216.443Z" fill="white"/>
<path d="M189.94 707.601C189.852 707.601 189.778 707.575 189.716 707.522C189.663 707.46 189.637 707.385 189.637 707.297V698.528C189.637 698.44 189.663 698.369 189.716 698.316C189.778 698.255 189.852 698.224 189.94 698.224H190.561C190.649 698.224 190.72 698.255 190.772 698.316C190.834 698.369 190.865 698.44 190.865 698.528V707.297C190.865 707.385 190.834 707.46 190.772 707.522C190.72 707.575 190.649 707.601 190.561 707.601H189.94ZM196.071 707.733C195.639 707.733 195.239 707.645 194.869 707.469C194.499 707.293 194.204 707.055 193.984 706.756C193.773 706.448 193.667 706.109 193.667 705.739C193.667 705.158 193.905 704.682 194.38 704.312C194.864 703.934 195.516 703.687 196.335 703.573L198.303 703.295V702.912C198.303 702.014 197.788 701.565 196.757 701.565C196.37 701.565 196.053 701.649 195.806 701.816C195.56 701.975 195.375 702.164 195.252 702.384C195.225 702.463 195.19 702.521 195.146 702.556C195.111 702.591 195.058 702.609 194.988 702.609H194.42C194.34 702.609 194.27 702.582 194.208 702.529C194.156 702.468 194.129 702.397 194.129 702.318C194.138 702.107 194.235 701.869 194.42 701.605C194.613 701.332 194.908 701.099 195.305 700.905C195.701 700.702 196.189 700.601 196.771 700.601C197.757 700.601 198.465 700.835 198.897 701.301C199.328 701.759 199.544 702.331 199.544 703.018V707.297C199.544 707.385 199.513 707.46 199.452 707.522C199.399 707.575 199.328 707.601 199.24 707.601H198.633C198.545 707.601 198.47 707.575 198.408 707.522C198.355 707.46 198.329 707.385 198.329 707.297V706.729C198.135 707.011 197.854 707.249 197.484 707.442C197.114 707.636 196.643 707.733 196.071 707.733ZM196.348 706.742C196.92 706.742 197.387 706.558 197.748 706.188C198.118 705.809 198.303 705.268 198.303 704.563V704.194L196.771 704.418C196.145 704.506 195.674 704.656 195.357 704.867C195.04 705.07 194.882 705.329 194.882 705.646C194.882 705.998 195.027 706.271 195.318 706.465C195.608 706.65 195.952 706.742 196.348 706.742ZM206.158 707.733C205.207 707.733 204.485 707.403 203.992 706.742V707.297C203.992 707.385 203.961 707.46 203.899 707.522C203.846 707.575 203.776 707.601 203.688 707.601H203.08C202.992 707.601 202.917 707.575 202.856 707.522C202.803 707.46 202.777 707.385 202.777 707.297V698.528C202.777 698.44 202.803 698.369 202.856 698.316C202.917 698.255 202.992 698.224 203.08 698.224H203.727C203.816 698.224 203.886 698.255 203.939 698.316C203.992 698.369 204.018 698.44 204.018 698.528V701.565C204.537 700.923 205.251 700.601 206.158 700.601C207.073 700.601 207.764 700.905 208.231 701.512C208.698 702.111 208.949 702.864 208.984 703.771C208.993 703.868 208.997 704 208.997 704.167C208.997 704.334 208.993 704.466 208.984 704.563C208.949 705.479 208.698 706.236 208.231 706.835C207.764 707.434 207.073 707.733 206.158 707.733ZM205.88 706.663C206.505 706.663 206.959 706.47 207.241 706.082C207.531 705.695 207.69 705.184 207.716 704.55C207.725 704.462 207.729 704.334 207.729 704.167C207.729 702.503 207.113 701.671 205.88 701.671C205.29 701.671 204.837 701.865 204.52 702.252C204.203 702.639 204.036 703.093 204.018 703.612L204.005 704.127L204.018 704.629C204.044 705.184 204.207 705.664 204.507 706.069C204.815 706.465 205.273 706.663 205.88 706.663ZM214.316 707.733C213.7 707.733 213.18 707.636 212.757 707.442C212.344 707.24 212.031 707.011 211.82 706.756C211.617 706.5 211.516 706.289 211.516 706.122C211.516 706.034 211.547 705.968 211.608 705.924C211.679 705.871 211.749 705.844 211.82 705.844H212.414C212.502 705.844 212.581 705.888 212.652 705.976C212.863 706.223 213.092 706.417 213.339 706.558C213.585 706.698 213.915 706.769 214.329 706.769C214.787 706.769 215.157 706.681 215.438 706.505C215.729 706.32 215.874 706.069 215.874 705.752C215.874 705.541 215.813 705.369 215.689 705.237C215.575 705.096 215.372 704.977 215.082 704.88C214.8 704.775 214.377 704.66 213.814 704.537C213.048 704.37 212.502 704.127 212.176 703.811C211.859 703.494 211.701 703.084 211.701 702.582C211.701 702.248 211.798 701.931 211.991 701.631C212.194 701.323 212.484 701.077 212.863 700.892C213.25 700.698 213.713 700.601 214.25 700.601C214.813 700.601 215.293 700.694 215.689 700.879C216.086 701.063 216.381 701.284 216.574 701.539C216.777 701.785 216.878 701.992 216.878 702.16C216.878 702.239 216.847 702.305 216.786 702.358C216.733 702.411 216.667 702.437 216.587 702.437H216.033C215.927 702.437 215.839 702.393 215.769 702.305C215.628 702.138 215.504 702.01 215.399 701.922C215.302 701.825 215.157 701.741 214.963 701.671C214.778 701.601 214.54 701.565 214.25 701.565C213.827 701.565 213.501 701.658 213.273 701.843C213.044 702.019 212.929 702.252 212.929 702.543C212.929 702.728 212.978 702.886 213.074 703.018C213.171 703.141 213.356 703.256 213.629 703.361C213.911 703.467 214.316 703.577 214.844 703.692C215.681 703.868 216.27 704.123 216.614 704.458C216.966 704.783 217.142 705.202 217.142 705.712C217.142 706.091 217.032 706.434 216.812 706.742C216.592 707.051 216.266 707.293 215.835 707.469C215.412 707.645 214.906 707.733 214.316 707.733Z" fill="white"/>
<circle cx="191.646" cy="691.738" r="3.83263" fill="white"/>
<circle cx="203.17" cy="691.738" r="3.83263" fill="white"/>
<circle cx="214.693" cy="691.738" r="3.83263" fill="white"/>
<rect width="406" height="830" rx="58" stroke="#515066" stroke-width="50" stroke-linecap="round" stroke-linejoin="round"/>
<rect x="129" y="7" width="148" height="37" rx="18.5" fill="#515066"/>
</g>
<defs>
<linearGradient id="paint0_linear" x1="222.295" y1="-19.1948" x2="203.17" y2="606.939" gradientUnits="userSpaceOnUse">
<stop offset="0.0738464" stop-color="#006CD0"/>
<stop offset="1" stop-color="#00A3FF"/>
</linearGradient>
<clipPath id="clip0">
<rect width="406.34" height="830.16" rx="50" fill="white"/>
</clipPath>
</defs>
</svg>
